<?xml version="1.0" encoding="UTF-8" standalone="no"?><!-- Generator: Gravit.io --><svg xmlns="http://www.w3.org/2000/svg" xmlns:xlink="http://www.w3.org/1999/xlink" style="isolation:isolate" viewBox="0 0 1000 500" width="1000pt" height="500pt"><defs><clipPath id="_clipPath_H1yjuzIH5ImZNGDlfnEZSAA4XDS61lrG"><rect width="1000" height="500"/></clipPath></defs><g clip-path="url(#_clipPath_H1yjuzIH5ImZNGDlfnEZSAA4XDS61lrG)"><g><path d=" M 0.5 0 L 997.475 0.5 L 996.81 500 L 232.618 499.5 L 231.952 497 L 227.962 499 L 223.306 493.5 L 438.796 492.5 L 436.136 480.5 L 450.103 480 C 454.371 479.643 459.616 479.919 462.075 483 L 462.075 483 L 464.735 483 C 496.951 485.713 529.474 486.101 561.839 485 L 561.839 485 L 577.801 482 C 579.344 483.933 580.943 482.487 581.791 481 L 581.791 481 L 589.108 477.5 C 581.176 471.186 580.263 461.718 581.126 453.5 L 581.126 453.5 L 589.108 444.5 L 584.452 442 L 567.825 449.5 C 567.642 452.1 566.371 454.704 563.169 456 L 563.169 456 L 559.843 455.5 Q 547.222 445.988 541.221 431.5 Q 530.136 418.833 534.57 394.5 Q 537.24 381.007 549.867 375 Q 553.325 371.6 563.169 373 L 573.145 379.5 C 577.34 380.843 577.666 384.547 577.136 387.5 L 577.136 387.5 L 564.499 405 L 561.174 405.5 L 557.183 410.5 L 571.15 411 L 586.447 402.5 L 591.103 392 C 593.014 394.367 597.208 394.364 600.414 394 L 600.414 394 L 604.405 393 C 608.112 396.656 614.68 397.27 620.367 397 L 620.367 397 L 625.023 395.5 C 625.335 392.131 623.9 388.776 619.037 388 L 619.037 388 L 617.041 387.5 Q 607.082 376.987 603.74 361.5 Q 605.402 358.75 607.065 361 Q 612.386 361.5 613.051 358.5 L 614.381 354.5 L 613.051 352.5 L 628.348 345 L 633.004 347.5 Q 656.006 365.707 648.966 406.5 Q 641.65 437 620.367 457 L 615.711 454.5 C 615.454 450.874 613.874 447.147 609.725 445 L 609.725 445 L 606.4 444.5 L 605.735 443 L 602.409 442.5 L 601.744 441 L 593.763 438 Q 590.77 438.75 591.768 442.5 Q 602.801 449.206 599.749 466.5 Q 589.655 471.912 591.768 486.5 L 593.763 489 L 599.749 491.5 L 600.414 493 L 618.372 494.5 L 619.037 496 L 688.871 495.5 L 689.537 494 C 705.753 494.814 722.527 494.329 738.088 490.5 L 738.088 490.5 L 738.753 489 L 755.381 489.5 L 756.046 491 L 760.702 489.5 Q 726.489 452.72 706.829 405 Q 694.699 389.619 690.202 368.5 Q 677.399 347.625 684.881 311.5 Q 689.204 298.75 698.848 290 Q 705.277 285.333 720.131 287 L 723.456 288.5 L 724.121 290 L 730.107 292.5 C 736.464 296.949 735.542 304.737 734.098 310.5 L 734.098 310.5 L 732.103 314 L 730.107 313.5 C 730.439 311.506 729.804 309.379 726.782 309 L 726.782 309 L 724.787 308.5 L 724.121 307 L 715.475 307.5 L 714.145 315.5 L 722.791 324 Q 729.11 324.75 731.437 322.5 Q 740.77 317.016 740.084 304 Q 752.141 313.936 750.06 334.5 Q 751.055 346.748 742.744 352 L 740.749 352.5 L 740.084 354 L 728.777 353.5 L 728.112 352 L 724.787 351.5 L 724.121 350 L 722.126 350.5 L 720.796 353.5 L 726.782 359 C 733.367 361.212 741.128 360.837 748.065 360 L 748.065 360 L 754.051 356.5 L 756.046 354 L 758.041 353.5 C 763.857 347.671 767.101 340.633 768.683 333.5 L 768.683 333.5 L 767.352 331.5 Q 775.068 325.3 770.013 309.5 Q 765.357 308 768.683 306.5 L 764.692 289.5 L 766.687 289 C 766.479 292.808 768.057 296.726 773.338 298 L 773.338 298 L 781.319 299 L 783.315 298.5 C 783.256 317.062 788.597 337.165 807.923 350 L 807.923 350 L 813.244 352 L 815.904 352 L 824.551 352.5 C 791.012 389.861 773.671 434.125 766.022 478.5 L 766.022 478.5 L 984.838 479 L 985.503 477.5 L 981.513 475.5 L 980.847 474 L 977.522 472.5 L 962.225 454 L 960.23 453.5 L 950.253 443 L 948.258 442.5 L 947.593 441 L 937.616 436.5 L 936.951 435 C 927.645 430.933 919.26 425.707 912.343 419.5 L 912.343 419.5 L 911.678 418 L 905.692 414.5 C 896.517 406.998 892.428 396.921 891.11 386.962 C 889.178 372.36 890.342 354.059 905.027 343 L 905.027 343 L 915.668 342 L 921.654 344.5 C 931.769 349.156 935.589 364.31 924.98 370 L 924.98 370 L 915.003 370.5 L 916.998 374 L 927.64 375 L 935.621 368 L 938.947 366.5 Q 945.764 357.125 942.937 340.5 Q 940.45 327.87 930.965 320.5 Q 943.848 310.185 946.263 292 L 948.258 292.5 C 948.347 287.311 955.562 279.826 962.355 285.777 C 966.322 289.253 966.134 295.297 965.55 299.5 L 965.55 299.5 L 962.225 298 L 958.234 297 C 955.212 297.379 954.577 299.506 954.909 301.5 L 954.909 301.5 L 958.234 305 L 962.225 306 C 968.475 302.5 968.038 295.621 966.88 290.5 L 966.88 290.5 L 963.555 284 L 955.574 281 L 952.248 282.5 L 951.583 284 L 948.258 285.5 L 947.593 287 L 946.928 284.5 Q 954.244 280 948.258 265.5 Q 945.923 250.756 937.616 240.5 L 942.272 243 L 946.263 242 L 950.918 244.5 L 954.244 249 L 962.225 251 L 968.211 248.5 C 971.942 246.38 973.316 242.875 973.531 239.5 L 973.531 239.5 L 970.206 235 L 965.55 236.5 L 964.22 241.5 L 966.88 245.5 C 966.396 248.414 963.047 249.262 959.564 249 L 959.564 249 L 953.579 245.5 L 951.583 242 L 949.588 242.5 L 953.579 240.5 C 958.869 236.289 959.474 229.977 958.899 224.5 L 958.899 224.5 L 956.904 222 L 952.248 222.5 L 950.918 228.5 L 952.914 232 C 954.714 231.385 955.692 230.383 953.579 229.5 L 953.579 229.5 L 954.244 224 L 956.239 224.5 C 957.31 229.333 957.27 235.739 950.253 238 L 950.253 238 L 948.258 238.5 L 947.593 240 L 943.602 241 L 940.277 239.5 L 939.612 238 L 934.956 236.5 L 934.291 235 L 932.296 234.5 L 924.314 227.5 L 936.286 221.5 L 940.277 211.5 L 938.947 208.5 L 944.932 203 C 955.509 201.296 961.481 208.036 960.23 215.5 L 960.23 215.5 L 956.904 216 L 956.239 211.5 L 957.569 209.5 L 955.574 209 L 954.909 216.5 L 959.564 219 L 962.89 213.5 C 962.378 209.143 960.337 204.746 955.574 202 L 955.574 202 L 944.932 201 L 940.277 203.5 L 938.281 206 L 934.291 201 C 930.808 201.262 927.459 200.414 926.975 197.5 L 926.975 197.5 L 925.645 189.5 L 931.631 183 L 934.291 186 L 946.263 187 L 949.588 185.5 L 950.918 181.5 L 944.932 176 L 939.612 174 L 933.626 176.5 L 932.961 178 L 930.965 178.5 C 925.306 182.672 923.309 188.724 922.984 194.5 L 922.984 194.5 L 926.31 200 L 928.305 200.5 L 926.975 209.5 L 935.621 214 L 937.616 213.5 Q 937.062 221.583 928.97 224 Q 922.851 223.4 920.989 226 Q 917.996 222.25 909.017 223 Q 897.544 224.125 895.05 218.5 L 891.06 205.5 L 894.385 197 L 898.376 202 L 907.687 204 L 913.673 195.5 L 909.682 189.5 L 913.673 187.5 C 921.088 182.622 921.386 174.286 920.324 167.5 L 920.324 167.5 L 915.668 162 C 913.201 161.588 909.512 161.32 908.352 163.5 L 908.352 163.5 L 907.022 170.5 Q 910.062 174.214 917.664 174.5 Q 917.289 182.218 911.678 186 L 906.357 187 L 903.697 186 L 898.376 189 C 896.954 181.952 893.369 175.007 886.404 170 L 886.404 170 L 879.753 169 L 873.767 172.5 L 872.437 178.5 L 874.433 181 L 879.753 182 L 884.409 179.5 L 885.074 178 L 887.069 177.5 L 887.734 176 L 891.06 177.5 L 896.381 190.5 C 886.44 198.042 885.826 217.59 898.376 224 L 898.376 224 L 901.701 224.5 L 897.711 230.5 L 899.706 231 C 902.305 228.767 906.731 228.68 910.348 229 L 910.348 229 L 916.333 231.5 L 916.998 233 L 918.994 233.5 C 927.348 234.992 924.509 245.69 922.806 249.866 C 921.513 253.037 919.163 255.938 915.668 258 L 915.668 258 L 913.673 257.5 C 916.666 256.886 916.781 254.409 916.333 252.5 L 916.333 252.5 L 913.008 247 L 907.687 246 C 905.672 249.03 901.259 250 897.046 250 L 897.046 250 L 891.06 246.5 L 896.381 244.5 C 897.053 241.75 897.449 238.084 894.385 236 L 894.385 236 L 887.069 238.5 L 885.739 244.5 L 893.055 251 L 901.701 252.5 C 901.276 255.497 902.019 258.946 906.357 260 L 906.357 260 L 913.008 261 L 918.994 258.5 L 924.98 244 C 932.463 248.158 928.719 257.101 926.975 262.5 C 922.466 276.454 915.959 289.516 902.366 300 L 902.366 300 L 898.376 302 L 887.069 299.5 C 889.152 282.678 888.579 264.453 878.423 249 L 878.423 249 L 876.428 248.5 C 872.98 239.486 866.7 231.126 857.14 225 L 857.14 225 L 845.833 219.5 L 844.503 207.5 L 851.819 200 C 855.59 199.63 859.704 200.254 860.466 203.5 L 860.466 203.5 L 861.796 211.5 L 860.466 214.5 L 865.121 215 L 871.107 211.5 Q 874.841 191.193 858.47 186 Q 852.484 187 851.154 184.5 L 849.824 176.5 L 851.819 172 L 857.14 173 L 861.796 170.5 C 862.714 167.394 860.526 162.798 855.124 165.234 C 854.461 165.534 854.048 165.975 853.815 166.5 L 853.815 166.5 L 853.15 168 L 851.154 168.5 C 847.108 173.124 847.46 179.269 848.494 184.5 L 848.494 184.5 L 849.159 186 C 843.938 185.72 839.652 187.267 839.183 191.5 L 839.183 191.5 L 835.857 197 L 830.536 198 L 819.23 194.5 C 821.906 192.565 823.119 189.796 823.491 187.078 C 823.848 184.459 820.597 179.124 823.885 178 L 823.885 178 L 836.522 170.5 C 840.175 163.951 839.394 156.326 837.852 149.5 L 837.852 149.5 L 831.867 144 L 824.551 144.5 L 823.22 152.5 C 824.317 155.386 828.615 155.444 831.867 155 L 831.867 155 L 835.192 153.5 L 834.527 151 L 832.532 151.5 L 831.867 153 L 825.881 152.5 L 826.546 146 C 839.419 144.738 837.936 158.498 836.522 164.5 C 835.74 167.823 834.359 170.95 830.536 173 L 830.536 173 L 819.895 177 L 814.574 176 C 810.364 179.671 809.617 184.848 809.918 189.5 L 809.918 189.5 L 815.904 195 L 817.9 195.5 L 818.565 197 Q 824.573 200.483 835.192 200.5 Q 830.869 202.75 833.862 210.5 Q 835.438 220.815 843.838 226 L 849.824 229.5 L 857.805 249.5 C 852.86 251.866 856.782 256.293 858.065 258.93 C 858.773 260.384 858.31 262.059 857.805 263.5 L 857.805 263.5 L 857.805 278.5 L 856.475 281.5 L 856.475 283.5 L 855.145 287.5 L 855.145 289.5 C 856.605 299.38 839.526 299.047 830.536 298 L 830.536 298 L 827.211 296.5 L 827.876 295 C 839.383 295.618 840.908 284.985 839.183 278.5 L 839.183 278.5 L 835.857 274 L 830.536 273 C 825.966 275.206 826.361 280.013 827.211 283.5 L 827.211 283.5 L 836.522 287.5 Q 833.363 292.625 825.216 294 Q 807.009 285.188 811.249 259.5 L 815.904 248 L 817.9 247.5 L 818.565 246 L 821.225 246 L 827.876 245 C 834.893 247.261 834.933 253.667 833.862 258.5 L 833.862 258.5 L 825.216 262 L 821.89 260.5 L 823.885 264 C 827.442 264.259 831.727 263.98 833.862 261.5 L 833.862 261.5 L 834.527 260 L 836.522 259.5 C 837.53 256.848 838.956 252.386 835.192 250.5 L 835.192 250.5 L 840.513 248.5 L 844.503 242.5 C 844.367 240.152 843.054 233.773 838.59 233.93 C 836.252 234.012 834.286 234.588 833.862 236.5 L 833.862 236.5 L 834.527 240 L 838.517 235 C 842.203 236.385 842.351 239.825 841.843 242.5 L 841.843 242.5 L 838.517 243 L 835.857 240 L 835.192 242.5 L 840.513 245.5 L 838.517 248 C 835.571 248.35 831.996 248.088 831.201 245.5 L 831.201 245.5 L 829.206 243 L 821.89 240.5 C 833.421 233.487 828.17 220.291 818.565 214 L 818.565 214 L 816.569 213.5 C 815.925 211.658 815.15 208.648 817.9 207.5 L 817.9 207.5 L 811.914 204 C 808.472 204.597 808.123 207.285 808.588 209.5 L 808.588 209.5 L 815.239 211.5 L 809.253 221 L 801.272 222 L 796.617 219.5 L 792.626 211.5 L 794.621 212 L 801.937 211.5 L 803.268 205.5 C 801.858 199.144 792.989 205.567 791.54 208.059 C 790.721 209.467 790.232 210.982 789.966 212.5 L 789.966 212.5 L 794.621 221 C 797.115 224.629 803.303 224.574 807.923 224 L 807.923 224 L 809.918 223.5 L 811.914 226 C 815.472 226.382 820.047 226.271 821.89 223.5 L 821.89 223.5 L 822.555 222 C 827.126 224.206 826.731 229.013 825.881 232.5 L 825.881 232.5 L 818.565 241 C 811.192 240.778 803.982 242.659 801.937 248.5 L 801.937 248.5 L 794.621 260 L 785.975 257.5 L 783.315 252.5 L 788.635 249.5 C 791.582 246.399 790.896 241.997 789.966 238.5 L 789.966 238.5 L 788.635 233.5 L 789.966 229.5 Q 789.026 223.706 783.98 221 Q 777.661 220.25 776.664 223.5 Q 775.666 228.25 779.989 229 L 784.645 226.5 L 785.31 225 L 788.635 230.5 C 788.693 233.406 787.639 236.529 783.98 238 L 783.98 238 L 780.654 239.5 L 779.324 245.5 L 780.654 248.5 L 779.324 250.5 L 781.985 254.5 C 780.888 257.386 776.59 257.444 773.338 257 L 773.338 257 L 771.343 254.5 C 774.72 253.654 774.574 250.645 774.003 248.5 L 774.003 248.5 L 772.008 246 L 767.352 247.5 L 766.687 249 L 764.692 248.5 L 764.027 247 C 761.081 246.65 757.505 246.912 756.711 249.5 L 756.711 249.5 L 755.381 257.5 L 760.036 264 L 763.362 265.5 L 762.697 268 L 756.046 270 L 754.716 268 L 750.06 265.5 L 748.065 261 L 744.739 259.5 L 739.419 252.5 L 746.07 248.5 C 754.59 240.484 755.247 229.276 754.051 219.5 L 754.051 219.5 L 752.72 216.5 C 756.861 216.344 761.086 215.28 763.362 212.5 L 763.362 212.5 L 768.683 206.5 L 768.683 204.5 C 769.149 201.477 769.189 198.22 767.519 195.375 C 764.534 190.292 757.649 190.956 754.549 195.375 C 752.54 198.241 752.27 201.32 752.72 204.5 L 752.72 204.5 L 756.046 208 L 759.371 208.5 L 758.706 210 L 754.716 211 L 748.73 207.5 C 747.11 201.996 743.144 193.957 736.093 191 C 731.936 189.257 728.028 189.873 724.787 186.5 C 721.722 183.312 721.541 179.277 722.126 175.5 L 722.126 175.5 L 723.456 175.5 L 726.782 179 C 730.673 179.627 736.367 179.952 738.088 176.5 L 738.088 176.5 L 740.084 166 L 744.739 163.5 C 753.315 158.094 753.911 145.79 747.951 139.085 C 744.873 135.622 735.419 133.185 732.768 138.5 L 732.768 138.5 L 731.437 147.5 C 732.778 151.331 738.306 151.575 742.744 151 L 742.744 151 L 746.735 147 L 747.4 154.5 L 741.414 162 L 737.423 163 C 734.586 159.919 728.013 161.151 724.121 162 L 724.121 162 L 720.796 163.5 C 715.184 169.082 715.543 176.956 716.805 183.5 L 716.805 183.5 L 720.796 188.5 L 712.815 189.5 C 705.415 197.481 705.8 208.3 707.494 217.5 L 707.494 217.5 L 712.15 222 L 720.131 223 C 724.412 221.069 724.193 216.712 723.456 213.5 L 723.456 213.5 L 720.131 210 L 712.815 207.5 C 712.143 204.75 711.746 201.084 714.81 199 L 714.81 199 L 722.126 199.5 Q 733.034 204.3 730.107 219.5 Q 722.868 223.558 721.461 232 Q 717.193 235.792 707.494 235.5 L 706.829 237 Q 697.185 235.25 694.857 239 Q 696.046 205.606 677.565 187 L 674.239 185.5 Q 673.874 174.225 681.555 169 Q 683.646 175.429 694.857 175 Q 701.176 173.75 699.513 166.5 L 691.532 161.5 C 701.669 153.979 702.716 138.671 697.518 129.125 C 695.908 126.17 693.176 123.65 689.537 122 L 689.537 122 L 680.89 122.5 C 677.944 125.601 678.63 130.003 679.56 133.5 L 679.56 133.5 L 684.216 138 L 690.867 139 Q 693.86 133.75 696.853 137.5 Q 697.948 155.323 684.216 162 L 679.56 163.5 C 673.985 168.726 671.622 175.429 670.914 182 L 670.914 182 L 668.919 181.5 L 665.593 177 L 659.607 174.5 C 670.12 168.318 671.262 152.206 660.272 146 L 660.272 146 L 650.296 145.5 L 648.966 133.5 L 650.961 134 L 658.277 131.5 C 663.833 127.569 662.63 119.495 653.622 121 L 653.622 121 L 648.966 123.5 L 644.31 129 L 640.985 127.5 C 633.914 122.927 634.336 114.759 635.664 108.5 L 635.664 108.5 L 637.659 108 C 639.948 110.868 647.981 109.799 649.932 107.102 C 651.372 105.111 650.895 102.603 650.296 100.5 L 650.296 100.5 L 645.64 96 C 629.443 98.734 631.306 113.967 633.004 123.5 L 633.004 123.5 L 640.32 132 L 644.975 134.5 C 644.234 139.323 644.286 144.914 648.301 149 L 648.301 149 L 651.626 150.5 C 650.718 154.527 650.639 159.918 656.282 162 L 656.282 162 L 660.938 162.5 L 658.942 168 L 656.947 168.5 L 656.282 170 C 648.45 170.505 639.165 169.808 634.334 164.5 L 634.334 164.5 L 633.669 163 L 625.023 159.5 L 624.357 158 L 617.041 154.5 L 614.381 141.5 L 615.711 141.5 L 617.707 144 C 629.607 145.413 631.149 135.402 630.343 128.5 L 630.343 128.5 L 621.032 124.5 C 624.805 115.837 625.963 104.12 622.641 95.165 C 621.594 92.342 619.534 89.753 616.376 88 L 616.376 88 L 609.725 86 L 608.395 88 L 606.4 88.5 C 605.206 92.19 604.081 97.99 609.725 100 L 609.725 100 L 613.716 101 L 617.707 99 C 622.68 103.418 621.237 110.387 619.702 115.5 L 619.702 115.5 L 616.376 127 L 613.051 128.5 C 608.697 131.773 608.455 136.629 608.686 140.969 C 608.866 144.353 611.713 145.723 610.39 149.5 L 610.39 149.5 L 609.06 149.5 L 597.754 139 L 590.438 135.5 Q 585.54 131.182 586.447 122.5 Q 593.597 123.375 595.758 120.5 Q 599.217 119.1 598.419 114.5 L 595.093 110 L 589.773 109 C 580.215 113.347 581.786 123.563 583.787 130.5 L 583.787 130.5 L 585.117 135.5 C 578.384 135.298 576.327 138.448 576.598 143.029 C 576.891 147.978 583.898 150.892 588.588 146.359 C 588.845 146.111 588.975 145.799 589.108 145.5 L 589.108 145.5 L 591.103 142 L 601.079 145.5 L 607.065 153 L 613.051 156.5 L 617.707 162 C 619.847 161.678 622.848 161.596 623.692 163.5 L 623.692 163.5 L 623.027 165 L 609.06 170.5 L 601.744 184 L 594.428 181.5 L 590.438 175.5 L 598.419 174.5 L 599.749 167.5 L 596.424 162 C 592.765 161.495 587.889 161.197 585.117 163.5 L 585.117 163.5 L 583.787 172.5 Q 584.525 182.945 593.763 187 Q 595.625 189.6 601.744 189 Q 604.737 184.75 607.73 189.5 Q 606.023 201.783 615.046 206 L 617.041 206.5 L 617.707 208 L 626.353 207.5 L 627.018 206 L 633.004 202.5 C 633.97 198.639 634.606 193.565 630.728 190.398 C 627.863 188.059 621.065 187.913 619.702 191.5 L 619.702 191.5 L 621.032 202.5 L 617.707 201 L 615.711 200.5 C 610.184 196.058 610.574 189.062 611.721 183.5 L 611.721 183.5 L 615.711 181.5 L 616.376 180 C 619.933 179.741 624.218 180.02 626.353 182.5 L 626.353 182.5 L 627.018 184 L 634.334 187.5 L 641.65 196 L 646.306 198.5 C 650.687 204.258 652.47 210.939 652.956 217.5 L 652.956 217.5 L 649.631 218 C 647.238 214.403 640.542 215.208 636.329 216 L 636.329 216 L 627.683 220.5 Q 623.398 223.279 624.357 230 Q 611.096 230.469 606.4 224.5 L 605.07 219.5 C 610.084 216.09 608.997 209.915 607.73 205.5 L 607.73 205.5 L 604.405 201 Q 597.089 200.5 596.424 205 Q 595.758 199.5 589.773 198 L 582.457 201.5 C 581.865 203.944 581.943 207.175 585.782 208 L 585.782 208 L 593.098 208.5 Q 593.431 216.75 587.112 220 Q 576.138 222.25 571.15 229 L 570.485 225.5 C 573.913 223.86 572.702 219.88 571.815 217.5 L 571.815 217.5 L 567.159 212 L 563.834 210.5 C 561.142 204.43 561.417 197.763 562.504 191.5 L 562.504 191.5 L 564.499 191 L 571.15 192 C 575.468 191.427 576.297 188.335 575.806 185.5 L 575.806 185.5 L 573.81 183 L 571.815 182.5 L 571.15 181 L 562.504 184.5 Q 556.518 191 558.513 203.5 Q 561.839 205 559.843 210.5 L 553.192 212.5 C 552.528 216.03 552.482 220.512 556.518 223 L 556.518 223 L 558.513 223.5 L 559.178 225 C 562.535 225.361 566.383 224.919 567.159 222 L 567.159 222 L 567.825 224.5 C 567.015 237.832 542.522 242.773 528.584 244 L 528.584 244 L 523.928 241.5 L 522.598 238.5 L 531.909 234.5 C 531.242 232.392 530.648 229.113 533.905 228 L 533.905 228 L 535.9 227.5 C 535.413 223.471 535.922 218.664 540.556 216 L 540.556 216 L 546.542 212.5 C 551.04 208.784 551.221 203.208 550.532 198.5 L 550.532 198.5 L 544.546 191 C 541.706 187.035 534.106 188.67 533.188 192.711 C 533.009 193.499 533.038 194.307 533.049 195.107 C 533.103 199.026 539.194 199.432 543.216 199 L 543.216 199 L 545.876 198 L 546.542 207.5 L 539.226 214 L 532.575 208 L 525.924 207 C 522.901 207.379 522.267 209.506 522.598 211.5 L 522.598 211.5 L 527.254 216 L 532.575 217 L 534.57 216.5 C 535.468 220.005 536.252 226.091 530.122 225.656 C 519.592 224.909 516.254 231.266 517.277 238.5 L 517.277 238.5 L 523.928 247.5 L 513.952 252 C 512.515 246.898 509.672 242.433 505.22 238.44 C 502.605 236.095 501.289 239.454 499.32 236 L 499.32 236 L 494.664 233.5 C 489.69 230.353 488.933 225.067 489.344 220.5 L 489.344 220.5 L 492.669 219 L 499.32 221 L 505.306 217.5 L 506.636 211.5 L 503.31 208 C 497.026 207.055 492.177 209.842 488.947 213.765 C 483.302 220.621 486.092 231.737 494.664 236.5 L 494.664 236.5 L 486.683 241.5 Q 485.686 246.25 490.009 247 Q 500.65 247.5 504.641 243 Q 511.02 246.205 510.627 254.5 L 506.636 256.5 Q 491.563 270.169 491.339 295 Q 472.119 294.449 462.74 286.5 Q 456.976 282.333 458.749 272.5 L 467.395 265 C 469.863 264.588 473.551 264.32 474.711 266.5 L 474.711 266.5 L 474.046 272 C 469.885 272.254 463.727 274.053 463.924 277.859 C 464.042 280.122 465.077 282.807 468.726 283 C 486.102 283.918 482.864 263.97 474.046 258 L 474.046 258 L 468.061 257.5 C 472.1 254.029 471.657 248.724 470.721 244.5 L 470.721 244.5 L 467.395 239 C 463.97 236.098 458.143 236.051 453.428 236.5 L 453.428 236.5 L 448.773 231 L 443.452 233 L 441.457 228.5 C 444.7 224.436 446.006 230.208 449.39 230.089 C 450.493 230.05 451.616 230.027 452.684 229.815 C 454.807 229.394 455.667 228.776 456.872 227.464 C 459.305 224.814 457.236 218.784 452.763 218 C 440.474 215.845 436.911 225.237 438.796 232.5 L 438.796 232.5 L 446.112 241 L 449.438 242.5 C 450.505 247.579 442.22 250.992 437.892 246.305 C 437.673 246.068 437.572 245.778 437.466 245.5 L 437.466 245.5 L 432.811 239 C 430.67 239.322 427.669 239.404 426.825 237.5 L 426.825 237.5 L 425.495 232.5 L 430.815 229.5 C 431.603 227.133 432.427 223.356 428.82 222 L 428.82 222 L 424.164 224.5 L 422.834 232.5 Q 429.042 235.833 428.155 244.5 Q 426.825 250 431.48 251 L 435.471 250 L 436.136 252.5 L 427.49 260 Q 421.504 261 420.174 258.5 Q 417.108 234.805 409.532 214.5 L 417.513 211.5 L 419.509 208 C 421.793 210.576 426.576 210.448 430.15 210 L 430.15 210 L 433.476 208.5 C 437.931 205.57 438.105 200.579 437.466 196.5 L 437.466 196.5 L 432.811 194 C 429.125 195.385 428.977 198.825 429.485 201.5 L 429.485 201.5 L 431.48 205 L 433.476 205.5 C 432.069 208.673 427.067 208.536 423.499 208 L 423.499 208 L 420.174 204.5 C 424.834 200.121 424.079 193.646 422.834 188.5 L 422.834 188.5 L 419.509 183 L 414.853 181.5 L 413.523 171.5 L 416.848 167 L 420.839 172 L 425.495 170.5 C 426.501 166.382 426.188 160.506 418.698 162.141 C 417.912 162.312 417.143 162.603 416.537 163.016 C 411.211 166.638 411.325 174.789 412.193 179.5 L 412.193 179.5 L 413.523 183.5 C 409.554 185.782 410.044 190.247 410.863 193.5 L 410.863 193.5 L 415.518 201 L 418.844 202.5 C 418.784 205.93 417.256 209.44 412.858 211 L 412.858 211 L 406.207 212 C 404.657 205.007 400.567 198.32 392.905 194 L 392.905 194 L 390.91 193.5 L 390.245 192 L 378.938 187.5 C 370.839 183.32 370.052 175.207 370.957 168.5 L 370.957 168.5 L 374.282 163 L 376.943 167 L 383.594 169 L 388.249 167.5 L 390.245 165 C 391.786 167.152 395.38 167.279 398.226 167 L 398.226 167 L 406.872 161.5 C 410.938 157.22 411.381 151.565 410.863 146.5 L 410.863 146.5 L 402.216 139 L 398.891 139.5 C 393.617 144.881 396.568 152.725 406.207 151 L 406.207 151 L 407.537 149 L 408.202 152.5 C 407.069 156.937 404.368 161.17 399.556 164 L 399.556 164 L 392.24 163.5 L 391.575 162 L 389.58 161.5 C 385.443 158.277 383.554 153.87 382.929 149.5 L 382.929 149.5 L 389.58 148.5 L 390.91 143.5 L 388.914 141 C 385.144 140.63 381.03 141.254 380.268 144.5 L 380.268 144.5 L 381.598 153.5 L 377.608 154.5 C 367.415 162.226 363.791 179.197 374.947 187.5 L 374.947 187.5 L 365.636 191.5 L 360.981 197 C 358.329 197.249 355.498 196.772 354.995 194.5 L 354.995 194.5 L 356.99 192 L 360.315 190.5 L 361.646 181.5 C 357.278 174.385 351.612 181.099 350.933 185.946 C 350.724 187.441 350.792 189.001 351.004 190.5 L 351.004 190.5 L 355.66 198 L 360.315 199.5 C 355.889 201.877 357.73 207.292 358.985 210.5 L 358.985 210.5 L 362.311 214 C 364.39 216.874 369.046 217.272 372.952 217 L 372.952 217 L 376.278 212.5 L 374.282 212 L 372.952 214 C 362.153 214.786 359.866 208.358 361.646 201.5 L 361.646 201.5 L 368.962 193 L 371.622 192 L 382.929 197.5 C 392.071 213.867 392.052 236.072 378.273 251 L 378.273 251 L 374.947 252.5 L 371.622 256 L 362.976 251.5 L 358.985 246.5 L 368.297 243.5 C 371.243 240.399 370.557 235.997 369.627 232.5 L 369.627 232.5 L 366.301 229 C 363.089 228.705 359.14 228.963 357.655 231.5 L 357.655 231.5 L 356.325 247.5 L 359.65 252 L 361.646 252.5 L 366.301 257 L 369.627 257.5 L 366.301 261 C 359.228 261.947 350.76 262.494 344.353 259.5 L 344.353 259.5 L 341.028 256 L 339.032 255.5 C 334.393 240.157 334.841 224.719 334.946 209.115 C 335.04 195.26 337.421 180.879 347.679 169 L 347.679 169 L 353.665 166.5 C 362.852 157.985 363.162 145.869 361.646 135.5 L 361.646 135.5 L 360.981 134 L 366.301 136 L 380.268 130.5 L 382.264 128 L 386.919 125.5 L 389.58 119.5 L 386.919 119.5 L 388.249 114.5 L 383.594 105 L 375.613 106 L 361.646 96.5 C 357.044 89.477 357.529 81.035 358.985 73.5 L 358.985 73.5 L 360.315 73.5 L 363.641 78 C 368.65 78.649 373.432 78.383 374.386 74.172 C 375.566 68.966 375.48 63.26 366.829 63.771 C 361.297 64.099 358.557 68.176 357.076 71.752 C 354.059 79.04 355.452 87.841 358.024 95.098 C 359.169 98.328 361.081 101.182 364.971 103 L 364.971 103 L 373.617 107.5 L 374.947 110.5 C 371.184 112.386 372.609 116.848 373.617 119.5 L 373.617 119.5 L 378.938 127.5 L 364.971 133 L 358.985 130.5 C 358.06 125.997 355.421 121.672 350.339 119 L 350.339 119 L 344.353 116.5 C 351.477 112.335 346.711 101.042 343.423 96.074 C 341.72 93.501 339.048 91.384 335.707 90 L 335.707 90 L 332.382 90.5 L 331.051 97.5 C 332.148 100.386 336.446 100.444 339.698 100 L 339.698 100 L 341.693 99.5 C 345.453 103.814 344.366 109.763 343.023 114.5 L 343.023 114.5 L 341.028 117 Q 329.721 116 328.391 122.5 Q 316.419 130.5 320.41 150.5 L 323.735 154 L 332.382 153.5 L 331.051 141.5 L 337.037 136 C 352.605 134.44 350.99 149.661 349.674 157.5 L 349.674 157.5 L 345.018 164 L 333.712 169.5 C 303.181 192.891 298.935 228.463 301.787 259.5 L 301.787 259.5 L 303.117 263.5 Q 293.869 263.048 289.15 266 Q 256.9 243.745 256.561 197.5 L 259.886 192 C 259.944 199.167 262.024 206.871 269.198 212 L 269.198 212 L 277.179 213 L 283.165 210.5 L 286.49 202 C 291.979 201.709 297.474 200.183 300.457 196.5 L 300.457 196.5 L 301.122 194 L 303.117 193.5 C 304.194 190.061 305.081 184.767 299.792 183 L 299.792 183 L 294.471 182 C 290.416 184.056 290.49 188.274 291.146 191.5 L 291.146 191.5 L 294.471 195 L 297.797 195.5 Q 294.841 199.778 285.16 199 Q 283.83 194 274.518 195 Q 268.699 198.125 269.863 206.5 L 272.523 209.5 L 270.528 210 C 261.954 203.687 260.148 194.114 260.551 185.5 L 260.551 185.5 L 267.867 177 L 269.863 176.5 L 271.858 174 C 274.457 171.767 278.883 171.68 282.5 172 L 282.5 172 L 289.15 175 L 289.816 172.5 L 285.825 167.5 L 293.806 162.5 Q 300.45 153.495 299.127 138.5 Q 291.601 132.158 292.476 119.5 Q 294.025 109.164 301.122 103 L 307.773 111 L 314.424 112 C 319.11 110.692 319.628 106.741 319.08 103.5 L 319.08 103.5 L 314.424 97 L 303.783 96 C 295.207 102.796 290.877 111.854 289.15 121 L 289.15 121 L 281.169 118 L 278.509 119 L 272.523 115.5 L 267.202 102.5 Q 275.89 102.531 279.174 98.5 Q 281.502 88.75 274.518 86 Q 268.2 85.25 267.202 88.5 Q 263.046 95.875 265.872 108.5 L 273.188 120 L 276.514 121.5 L 272.523 130.5 L 278.509 140 C 283.97 140.536 290.479 140.003 292.476 135.5 L 292.476 135.5 L 294.471 133 Q 299.238 135.417 297.797 142.5 Q 297.054 154.442 290.481 162 Q 273.165 162.482 263.877 169 Q 254.011 166.417 248.58 160.5 Q 245.033 158.167 245.919 152.5 L 255.231 150.5 C 258.636 147.94 258.521 143.815 257.891 140.5 L 257.891 140.5 L 255.231 137.5 L 257.226 135 L 259.221 134.5 L 261.882 124.5 L 258.556 116 L 256.561 115.5 L 253.235 108 L 249.91 106.5 L 249.245 105 L 242.594 102 L 233.948 107.5 C 230.521 109.218 230.692 112.813 231.287 115.5 L 231.287 115.5 L 233.283 118 L 242.594 119 L 249.91 116.5 L 251.905 114 L 253.901 114.5 C 259.993 117.897 260.127 124.372 259.221 129.5 L 259.221 129.5 L 253.235 137 C 251.095 136.678 248.094 136.596 247.25 138.5 L 247.25 138.5 L 245.254 142 L 241.929 140.5 L 239.934 138 L 227.962 137 L 224.636 138.5 C 218.418 142.384 216.649 148.677 216.655 154.5 L 216.655 154.5 L 219.981 159 C 228.205 159.773 229.908 148.678 223.971 146 L 223.971 146 L 222.641 156 L 220.646 155.5 L 219.316 151.5 L 226.632 140 L 233.283 139 L 240.599 141.5 L 244.589 147.5 C 240.265 149.306 244.145 158.137 245.228 160.27 C 246.822 163.407 249.526 166.135 253.235 168 L 253.235 168 L 260.551 170.5 L 257.226 174 L 255.231 174.5 L 245.254 185 L 243.924 183 L 241.264 186 L 237.273 187 L 229.957 182.5 L 229.292 181 L 227.297 180.5 C 222.99 177.096 222.714 171.903 223.306 167.5 L 223.306 167.5 L 226.632 166 L 227.297 173.5 C 225.418 174.285 226.58 176.529 227.962 176 C 230.905 174.873 230.372 169.001 230.232 167.206 C 229.967 163.828 226.673 163.326 222.641 164 L 222.641 164 L 221.976 177.5 L 226.632 183 L 228.627 183.5 L 227.297 186.5 L 229.957 186.5 L 228.627 189.5 C 228.292 192.609 226.542 195.588 222.641 197 L 222.641 197 L 218.651 198 L 211.335 194.5 C 215.432 192.652 215.799 188.709 215.325 185.5 L 215.325 185.5 L 212 181 L 207.344 181.5 L 206.014 190.5 L 212 198 L 221.311 200 L 228.627 196.5 L 230.622 192 L 233.948 190.5 L 234.613 189 L 239.934 190 L 242.594 189 L 243.259 190.5 Q 230.836 209.661 232.618 239.5 Q 235.61 240.75 233.948 245.5 L 232.618 245.5 L 231.952 243 C 230.166 239.846 225.24 239.602 221.311 240 L 221.311 240 L 215.325 243.5 L 210.669 258 L 208.674 258.5 C 203.432 263.458 203.61 270.558 204.684 276.5 L 204.684 276.5 L 214.66 293 L 216.655 293.5 C 225.756 308.352 221.692 329.419 204.519 340.001 C 201.383 341.933 199.127 344.273 195.109 345.364 C 189.918 346.775 184.118 346.579 178.745 346 L 178.745 346 L 172.759 343.5 L 182.736 329 L 190.717 332 L 202.023 324.5 L 204.684 319.5 L 201.358 311 L 199.363 310.5 L 198.698 309 C 188.426 307.781 189.191 318.571 193.377 323 L 193.377 323 L 198.033 323.5 L 196.037 326 L 188.056 329 L 183.401 326.5 C 179.236 321.58 180.521 314.858 182.07 309.5 L 182.07 309.5 L 186.061 307.5 C 189.647 305.381 192.194 302.466 193.709 299.249 C 197.181 291.872 198.597 276.825 188.056 272 L 188.056 272 L 185.396 272 L 176.75 269.5 Q 173.139 266.214 174.089 259.5 Q 181.239 260.375 183.401 257.5 L 184.731 248.5 L 177.415 248 L 174.089 249.5 L 173.424 251 L 171.429 251.5 C 169.738 258.872 168.972 268.629 177.415 274 L 177.415 274 L 179.41 274.5 C 178.505 278.68 178.095 283.791 181.774 287.348 C 183.872 289.376 189.924 290.873 192.047 288 L 192.047 288 L 192.712 292.5 Q 191.021 301.729 182.736 306 Q 174.625 301.097 173.424 291 L 171.429 290.5 L 169.434 288 L 166.108 288.5 C 172.706 293.24 171.65 301.446 170.099 307.5 L 170.099 307.5 L 166.773 313 L 164.778 312.5 L 164.113 311 L 158.792 312 L 151.476 307.5 L 146.155 296.5 C 149.363 296.596 152.802 295.936 154.137 293.5 L 154.137 293.5 L 155.467 287.5 L 153.471 285 L 144.825 285.5 C 141.681 287.725 141.553 291.515 142.165 294.5 C 143.562 301.311 146.928 308.025 153.471 313 L 153.471 313 L 164.778 314.5 L 160.122 319 L 155.467 319.5 L 154.802 322 C 142.795 322.727 140.249 315.409 136.746 308.074 C 128.755 291.342 127.505 273.101 128.863 255.5 L 128.863 255.5 L 134.849 243 L 136.844 243.5 L 140.17 247 L 150.811 248 L 170.099 238.5 L 180.075 226 C 184.4 226.088 188.888 225.76 192.857 224.359 C 206.659 219.489 209.048 207.761 207.344 197.5 L 207.344 197.5 L 201.358 191 C 191.361 189.33 190.663 199.802 196.037 204 L 196.037 204 L 204.684 205.5 Q 204.088 215.052 196.037 219 Q 193.092 223.286 182.736 222 Q 182.591 211.108 173.424 207 L 171.429 206.5 L 172.759 204.5 C 165.95 196.683 166.004 186.412 167.438 177.5 L 167.438 177.5 L 170.764 173 C 173.049 175.576 177.831 175.448 181.405 175 L 181.405 175 L 182.07 167.5 C 180.974 164.614 176.676 164.556 173.424 165 L 173.424 165 L 167.438 168.5 Q 161.526 179.556 164.778 197.5 Q 170.016 200.062 168.769 207.5 Q 163.923 208.857 164.778 214.5 Q 165.609 222.375 172.094 226 L 175.42 226.5 L 166.773 237 L 156.797 241.5 L 156.132 243 C 152.493 245.26 147.291 245.357 142.83 245 L 142.83 245 L 136.844 239.5 C 140.264 231.854 145.978 224.804 154.137 219.5 L 154.137 219.5 L 149.481 219 L 141.5 223 L 132.854 218.5 C 127.978 214.161 127.982 207.822 128.863 202.5 L 128.863 202.5 L 130.193 202.5 L 132.188 205 L 139.504 204.5 L 140.17 201 C 149.881 202.622 150.983 193.899 150.146 188.5 L 150.146 188.5 L 144.16 179 L 139.504 179.5 L 138.174 185.5 C 139.756 188.275 143.914 188.744 147.486 188.5 L 147.486 188.5 L 145.49 198 C 140.437 198.3 134.557 197.945 130.858 195 L 130.858 195 L 126.868 196 C 116.773 190.3 114.086 180.491 114.231 171.5 L 114.231 171.5 L 116.226 171 L 120.217 172 L 124.872 169.5 Q 126.618 162.687 122.877 160 Q 115.561 159 114.231 162.5 Q 108.688 167.833 111.571 179.5 Q 115.364 192.148 126.203 199.5 Q 121.547 202 124.872 210.5 Q 127.438 220.571 136.844 225.5 L 130.193 229.5 L 124.207 237 L 114.896 229 L 111.571 227.5 C 118.863 223.041 116.591 213.439 113.019 207.911 C 111.619 205.744 108.196 201.027 104.4 200.859 C 95.378 200.46 103.835 207.658 97.604 210 L 97.604 210 L 89.622 211 L 82.306 207.5 L 80.976 203.5 L 82.972 204 C 86.742 204.37 90.856 203.746 91.618 200.5 L 91.618 200.5 L 92.948 195.5 Q 92.542 188.806 86.962 186 Q 78.648 184.75 76.986 188.5 Q 73.328 206.25 84.302 213 Q 96.606 215.75 100.264 212 Q 103.7 215.917 112.901 215.5 Q 114.563 222.75 109.575 225 Q 103.617 229.021 92.948 229.5 L 92.283 231 L 87.627 232.5 L 86.962 234 L 79.646 237.5 L 76.986 240.5 L 76.986 242.5 L 75.656 247.5 Q 75.706 255.962 80.311 261 Q 92.615 262.25 94.278 255.5 Q 96.939 248 92.283 246 Q 86.962 245.5 86.297 248.5 L 84.967 253.5 L 87.627 256.5 C 87.285 258.045 83.791 260.251 81.641 259 C 78.792 257.342 79.307 251.512 79.423 249.293 C 79.801 242.052 86.017 235.715 96.273 237 L 96.273 237 L 97.604 239 L 102.259 240.5 C 112.847 254.221 100.692 267.253 97.498 280.921 C 92.44 302.567 92.415 330.265 108.91 349.5 L 108.91 349.5 L 106.915 350 Q 103.257 346.25 90.953 349 Q 88.625 351.75 80.311 350 L 77.651 349 L 71 350 L 62.354 345.5 L 57.033 332.5 L 59.028 332 C 59.845 334.25 63.14 334.337 65.679 334 L 65.679 334 L 71.665 330.5 L 73.66 326 L 80.976 324.5 C 89.25 319.92 90.808 311.704 90.288 304.5 L 90.288 304.5 L 86.962 300 L 84.967 299.5 L 84.302 298 L 79.646 299.5 C 78.687 302.692 78.041 307.474 82.972 309 L 82.972 309 L 86.962 308 L 87.627 311.5 L 78.981 322 C 76.841 322.322 73.839 322.404 72.995 320.5 L 72.995 320.5 L 69.67 316 C 55.463 314.813 54.612 331.368 55.703 338.5 L 55.703 338.5 L 59.693 345.5 L 56.368 350 L 49.717 352 L 43.731 349.5 L 47.722 348.5 L 49.052 339.5 C 47.892 337.32 44.203 337.588 41.736 338 L 41.736 338 L 38.41 339.5 C 37.355 344.059 37.033 350.25 43.066 353 L 43.066 353 L 55.038 354 L 61.689 348 L 64.349 351 L 71.665 352.5 C 64.602 353.201 58.977 356.217 57.033 361.5 L 57.033 361.5 L 53.707 365 L 51.712 365.5 C 37.773 380.899 34.156 400.264 34.42 418.5 L 34.42 418.5 L 39.075 425 L 41.071 424.5 C 39.404 421.696 38.9 418.539 38.914 415.496 C 38.985 401.073 47.134 385.54 61.689 376 L 61.689 376 L 65.679 375 L 65.014 376.5 L 63.684 388.5 L 69.67 398 C 73.502 403.351 80.411 398.665 81.67 394.897 C 82.146 393.473 82.315 391.967 82.306 390.5 L 82.306 390.5 L 77.651 385 C 73.88 384.63 69.767 385.254 69.005 388.5 L 69.005 388.5 L 68.34 390 C 63.908 388.096 65.54 383.463 66.344 380.5 C 67.146 377.546 68.911 371.959 73.66 371 C 77.435 370.238 83.639 371.644 87.17 372.656 C 101.022 376.626 107.241 390.668 110.114 400.408 C 117.744 426.277 111.502 458.469 88.292 479 L 88.292 479 L 86.297 479.5 C 85.829 482.81 84.094 486.074 80.311 488 L 80.311 488 L 78.316 488.5 L 77.651 490 L 72.995 492.5 L 71.665 495.5 C 76.072 500.233 86.356 498.3 92.283 497 L 92.283 497 L 150.811 497 C 153.32 494.17 159.255 495.242 162.783 496 L 162.783 496 L 196.037 496 L 212.665 499.5 L 0.5 500 L 0.5 0 Z " fill="rgb(251,251,251)"/><path d=" M 364.971 64 C 367.776 63.498 372.137 63.051 373.617 65.5 L 373.617 65.5 L 372.952 77 L 363.641 78 L 359.65 73 L 358.985 90.5 Q 360.482 97.875 367.631 101 Q 369.022 106.455 378.273 106 L 383.594 105 C 387.522 108.401 388.403 113.154 388.249 117.5 L 388.249 117.5 L 386.919 119.5 L 389.58 119.5 C 389.111 122.81 387.376 126.074 383.594 128 L 383.594 128 L 380.268 129.5 L 378.273 132 C 373.445 132.304 368.515 133.398 364.971 136 L 364.971 136 L 362.311 135 C 363.522 146.266 362.354 159.235 351.669 168 L 351.669 168 L 347.014 169.5 Q 329.456 192.801 335.042 233.5 Q 332.457 248.443 339.698 256 L 344.353 258.5 L 345.018 260 C 351.604 262.212 359.365 261.837 366.301 261 L 366.301 261 L 369.627 257.5 L 361.646 253.5 L 360.981 252 L 358.985 251.5 C 354.325 247.121 355.08 240.646 356.325 235.5 L 356.325 235.5 L 359.65 230 L 366.301 229 C 371.429 231.753 370.701 237.462 369.627 241.5 L 369.627 241.5 L 366.301 245 L 358.985 246.5 L 367.631 255 L 371.622 256 L 376.943 251 L 378.938 250.5 Q 391.293 238.288 388.249 214.5 Q 388.695 201.165 379.603 195 Q 372.62 195.75 371.622 192 L 365.636 195.5 C 360.744 199.036 360.803 204.827 361.646 209.5 L 361.646 209.5 L 363.641 212 L 372.952 214 L 374.282 212 L 376.278 212.5 L 372.952 217 C 359.991 217.863 356.776 208.387 358.985 200.5 L 358.985 200.5 L 359.65 199 L 354.995 197.5 C 350.881 194.408 350.508 189.6 351.004 185.5 L 351.004 185.5 L 356.99 178 C 362.478 179.238 362.534 183.936 361.646 187.5 L 361.646 187.5 L 358.32 192 L 354.995 193.5 L 358.32 197 C 360.972 197.249 363.802 196.772 364.306 194.5 L 364.306 194.5 L 366.301 191 L 374.947 187.5 C 363.24 178.617 367.574 162.149 378.273 154 L 378.273 154 L 381.598 153.5 L 380.268 144.5 C 381.03 141.254 385.144 140.63 388.914 141 L 388.914 141 L 390.91 146.5 L 388.914 149 L 382.929 149.5 C 383.589 154.107 385.669 158.746 390.245 162 L 390.245 162 L 392.24 162.5 L 392.905 164 L 400.221 163.5 C 405.924 160.167 407.933 154.71 408.202 149.5 L 408.202 149.5 L 406.872 149.5 L 406.207 151 C 398.845 152.318 396.681 149.76 396.906 144.508 C 396.959 143.283 397.5 139.634 399.556 139 C 404.959 137.333 409.063 142.954 410.572 145.844 C 414.007 152.426 408.236 162.425 400.886 166 L 400.886 166 L 394.235 167 L 390.245 165 L 386.254 169 L 383.594 169 L 376.278 166.5 L 374.282 163 C 370.048 166.608 370.153 172.029 370.957 176.5 L 370.957 176.5 L 379.603 188 C 383.981 188.401 388.277 189.726 390.91 192.5 L 390.91 192.5 L 391.575 194 L 398.891 198.5 L 406.207 212 C 410.769 211.955 415.439 210.806 417.513 207.5 L 417.513 207.5 L 418.844 202.5 L 413.523 199.5 Q 409.699 194.875 410.863 186.5 Q 414.321 185.1 413.523 180.5 Q 409.2 178.25 412.193 170.5 Q 413.855 164.75 419.509 162 L 424.164 162.5 L 425.495 170.5 L 420.839 172 L 416.848 167 C 412.812 169.488 412.858 173.97 413.523 177.5 L 413.523 177.5 L 416.848 183 L 420.174 183.5 C 424.391 188.438 423.962 194.954 422.834 200.5 L 422.834 200.5 L 420.174 205.5 C 421.581 208.673 426.583 208.536 430.15 208 L 430.15 208 L 432.811 205 L 430.815 204.5 L 429.485 197.5 L 432.811 194 L 437.466 196.5 C 438.132 200.811 437.852 206.126 432.811 209 L 432.811 209 L 423.499 210 L 419.509 208 L 416.848 212 L 409.532 214.5 C 414.084 224.648 417.108 235.774 417.513 246.5 C 417.641 249.863 416.945 252.969 418.697 256.235 C 422.029 262.449 433.513 260.819 434.806 254.5 L 434.806 254.5 L 436.136 250.5 L 434.141 251 C 425.246 251.836 428.646 243.578 428.03 239.594 C 427.21 234.29 417.99 225.846 427.49 222 L 427.49 222 L 430.815 223.5 C 431.649 226.426 432.081 230.706 427.49 232 L 427.49 232 L 425.495 232.5 L 428.82 239 C 430.96 238.678 433.962 238.596 434.806 240.5 L 434.806 240.5 L 440.792 248 C 445.335 248.621 452.671 246.426 449.126 241.984 C 448.728 241.486 448.142 241.175 447.443 241 L 447.443 241 L 444.117 239.5 C 438.024 236.103 437.891 229.628 438.796 224.5 L 438.796 224.5 L 446.112 218 C 449.68 217.464 454.682 217.327 456.089 220.5 L 456.089 220.5 L 457.419 226.5 Q 455.632 230.656 447.443 230 Q 444.45 224.75 441.457 228.5 L 443.452 233 L 448.773 231 L 454.094 237 C 459.45 236.317 466.622 236.258 469.391 240.5 L 469.391 240.5 L 470.721 253.5 L 468.061 257.5 L 474.711 258.5 C 481.201 263.378 481.876 272.154 480.032 278.5 C 479.124 281.624 471.087 284.14 467.416 282.734 C 462.345 280.792 463.182 276.213 467.047 273.863 C 469.072 272.632 473.157 272.606 474.711 271.5 C 476.379 270.314 475.319 265.427 472.716 265 C 461.02 263.081 457.013 273.891 458.749 280.5 L 458.749 280.5 L 466.065 289 Q 475.401 294.482 491.339 295 Q 491.524 269.639 507.301 256 L 510.627 254.5 C 510.761 251.655 510.373 248.65 508.473 246.119 C 504.96 241.442 504.978 243.945 500.712 245.672 C 494.628 248.135 485.275 248.205 486.683 241.5 L 486.683 241.5 L 494.664 236.5 C 487.124 232.451 486.026 224.922 486.683 218.5 L 486.683 218.5 L 496.66 208 C 499.464 207.498 503.825 207.051 505.306 209.5 L 505.306 209.5 L 506.636 215.5 L 501.98 220 L 496.66 221 L 491.339 219 C 488.439 219.872 488.795 222.645 489.344 224.5 L 489.344 224.5 L 497.99 236 L 501.98 238 C 504.143 235.074 508.914 241.864 509.61 242.764 C 511.809 245.609 513.168 248.777 513.952 252 L 513.952 252 L 523.928 247.5 C 517.591 244.584 516.697 238.581 517.277 233.5 L 517.277 233.5 L 523.263 226 L 533.24 225.5 L 534.57 216.5 L 532.575 217 C 529.116 216.863 525.652 215.907 523.928 213.5 L 523.928 213.5 L 522.598 209.5 C 523.102 207.228 525.932 206.751 528.584 207 L 528.584 207 L 537.23 211.5 L 539.226 214 C 547.584 211.559 547.777 204.159 546.542 198.5 L 546.542 198.5 L 544.546 198 L 537.895 199 L 533.24 196.5 C 532.112 190.564 537.067 186.596 544.84 190.092 C 547.256 191.178 549.425 195.157 550.116 197.063 C 551.257 200.208 551.285 204.124 550.09 207.293 C 548.714 210.942 546.42 214.088 541.886 216 L 541.886 216 L 538.56 217.5 C 539.225 221.03 539.271 225.512 535.235 228 L 535.235 228 L 531.909 229.5 Q 533.572 235.75 528.584 237 Q 523.596 236.25 522.598 238.5 L 524.593 242 Q 527.254 245 535.235 244 Q 553.065 239.904 565.164 231.5 L 567.825 222.5 L 563.169 225 L 558.513 224.5 L 557.848 223 L 554.523 221.5 L 553.192 212.5 L 559.843 210.5 L 558.513 192.5 L 563.169 184 L 571.15 181 L 572.48 183 L 574.475 183.5 L 575.806 188.5 C 574.753 192.061 569.894 192.47 565.829 192 L 565.829 192 L 563.169 191 L 562.504 206.5 L 565.829 212 L 569.155 213.5 C 572.773 216.363 572.547 220.883 571.815 224.5 L 571.815 224.5 L 570.485 228.5 L 580.461 222 L 590.438 217.5 Q 593.858 214.571 593.098 208.5 Q 584.729 209.292 582.457 205.5 Q 581.126 200 585.782 199 L 589.773 198 Q 595.758 199.5 596.424 205 Q 597.089 200.5 604.405 201 Q 610.343 205.536 607.73 216.5 L 605.07 221.5 L 611.056 228 Q 615.426 230.714 624.357 230 Q 623.403 220.782 631.008 218 Q 635.886 214.667 646.971 216 L 652.291 218 L 652.956 216.5 C 651.987 209.196 649.174 201.809 642.98 196 L 642.98 196 L 640.985 195.5 L 632.339 186 L 626.353 183.5 L 625.688 182 L 616.376 180 L 615.046 182 L 611.721 183.5 C 610.533 189.264 610.18 196.642 616.376 201 L 616.376 201 L 620.367 203 L 621.032 200.5 C 617.527 198.744 617.964 193.039 620.128 190.695 C 625.889 184.456 633.584 192.053 633.674 196.683 C 633.717 198.87 633.527 200.408 633.004 202.5 L 633.004 202.5 L 626.353 206.5 L 625.688 208 L 617.041 207.5 L 616.376 206 L 611.721 203.5 Q 612.797 191.691 604.405 187 Q 603.407 189.75 597.754 189 L 591.768 185.5 C 584.228 181.451 583.13 173.922 583.787 167.5 L 583.787 167.5 L 585.782 163 L 596.424 162 C 600.06 164.682 600.257 168.94 599.749 172.5 L 599.749 172.5 L 597.754 175 L 590.438 175.5 L 595.093 182 L 601.744 184 L 609.725 170 L 623.692 164.5 L 621.697 162 L 617.041 161.5 L 608.395 153 L 606.4 152.5 L 599.084 144 L 591.103 142 L 585.782 148 L 578.466 147.5 L 577.136 138.5 Q 578.882 135.313 585.117 135.5 Q 582.013 126.833 583.787 114.5 L 589.773 109 L 595.758 110.5 L 598.419 117.5 L 593.763 122 L 586.447 122.5 C 586.185 126.879 587.032 135.718 593.763 138 C 598.605 139.642 602.625 140.533 605.07 144.5 L 605.07 144.5 L 609.725 150 L 610.39 144.5 C 606.292 142.367 607.931 137.426 609.06 134.5 L 609.06 134.5 L 615.046 127 L 617.041 126.5 C 620.209 118.432 620.521 109.835 619.702 101.5 L 619.702 101.5 L 617.707 99 L 612.386 101 L 606.4 97.5 L 607.065 88 L 609.06 87.5 L 609.725 86 C 614.807 85.733 617.903 86.987 619.702 90.5 C 623.725 98.359 624.737 106.1 623.692 114.5 L 623.692 114.5 L 621.032 124.5 L 630.343 128.5 C 630.926 133.44 630.481 139.19 625.688 143 L 625.688 143 L 617.707 144 L 615.046 141 L 614.381 144.5 C 613.894 148.529 614.403 153.336 619.037 156 L 619.037 156 L 625.023 158.5 L 625.688 160 L 634.334 163.5 L 637.659 167 C 642.783 170.141 649.987 170.416 656.282 170 L 656.282 170 L 657.612 168 L 659.607 167.5 L 660.938 162.5 L 655.617 161.5 C 650.793 158.451 649.549 153.507 649.631 149 L 649.631 149 L 647.636 148.5 C 648.675 142.857 648.582 135.632 641.65 132 L 641.65 132 L 639.655 131.5 C 629.95 125.562 630.317 113.028 633.386 104.788 C 634.69 101.286 637.027 98.446 641.65 97 L 641.65 97 L 645.64 96 C 650.153 97.542 650.707 101.168 650.605 104.518 C 650.456 109.429 644.289 109.854 638.989 109 L 638.989 109 L 636.329 108 L 635.664 120.5 L 642.98 129 L 646.306 127.5 L 650.961 122 L 658.942 121 C 662.2 122.113 661.605 125.392 660.938 127.5 L 660.938 127.5 L 657.612 132 L 650.961 134 L 648.966 133.5 Q 647.17 141.85 650.961 146 Q 661.27 144.25 663.598 148.5 Q 668.677 153.182 667.589 162.5 Q 666.258 170.5 659.607 174.5 L 666.258 177.5 L 669.584 182 L 671.579 181.5 Q 672.275 168.523 681.555 162 Q 689.537 162.5 690.202 157.5 Q 698.723 151.406 696.853 137.5 Q 693.86 133.75 690.867 139 Q 682.678 139.656 680.89 135.5 Q 677.565 132 679.56 124.5 L 681.555 122 L 690.202 122.5 C 705.035 130.312 703.31 152.415 691.532 161.5 L 691.532 161.5 L 699.513 166.5 Q 701.176 173.75 694.857 175 Q 683.646 175.429 681.555 169 Q 673.586 174.009 674.239 185.5 L 679.56 188.5 Q 695.69 207.374 694.857 239 Q 697.684 235.125 707.494 236.5 L 708.159 235 C 727.473 236.771 731.75 219.503 730.107 208.5 L 730.107 208.5 L 721.461 199 L 714.145 199.5 L 712.815 207.5 L 722.126 211.5 L 723.456 219.5 L 720.131 223 Q 712.371 223.833 710.154 220.5 Q 702.705 214.6 707.494 199.5 Q 713.48 196.5 713.48 189 L 720.796 188.5 C 714.44 184.051 715.361 176.263 716.805 170.5 L 716.805 170.5 L 721.461 163 C 725.586 160.785 731.442 161.301 736.093 162 L 736.093 162 L 738.753 162 L 742.079 161.5 C 747.921 158.396 748.198 152.347 747.4 147.5 L 747.4 147.5 L 744.739 148.5 L 742.744 151 C 738.753 151.517 732.313 151.399 731.437 147.5 C 730.719 144.301 730.193 137.219 736.093 136 C 745.184 134.121 750.129 139.359 751.254 145.602 C 752.574 152.927 749.999 161.684 741.414 166 L 741.414 166 L 739.419 166.5 C 740.285 170.131 740.783 174.831 737.054 177.723 C 733.676 180.343 725.356 180.309 723.456 176.5 L 723.456 176.5 L 722.791 175 L 722.126 181.5 L 728.112 189 C 733.517 188.659 738.567 189.648 740.495 193.753 C 743.404 199.948 744.864 205.557 752.055 210 L 752.055 210 L 756.046 211 L 759.371 209.5 L 758.706 208 L 755.381 207.5 C 751.954 205.782 752.125 202.187 752.72 199.5 L 752.72 199.5 L 758.706 192 L 764.692 192.5 C 769.147 195.43 769.321 200.421 768.683 204.5 L 768.683 204.5 L 766.022 208.5 L 760.036 215 L 752.72 216.5 C 758.959 226.997 752.809 243.098 742.744 251 L 742.744 251 L 739.419 252.5 L 746.735 261 L 748.73 261.5 C 748.912 264.1 750.184 266.704 753.386 268 L 753.386 268 L 755.381 268.5 L 756.046 270 L 763.362 267.5 L 761.367 264 L 759.371 263.5 C 754.916 260.57 754.743 255.579 755.381 251.5 L 755.381 251.5 L 760.036 247 L 764.692 247.5 L 765.357 249 L 767.352 248.5 L 769.348 246 L 772.673 246.5 L 774.003 252.5 L 771.343 255.5 C 773.67 259.872 782.689 256.736 781.985 252.5 L 781.985 252.5 L 779.324 249.5 L 780.654 246.5 L 779.324 243.5 L 782.65 238 L 787.305 235.5 L 788.635 230.5 L 785.31 225 L 781.319 229 L 776.664 226.5 C 775.954 223.118 779.488 218.899 784.666 221.234 C 789.156 223.26 790.159 229.061 789.966 232.5 L 789.966 232.5 L 788.635 237.5 C 792.734 239.633 791.095 244.574 789.966 247.5 L 789.966 247.5 L 786.64 251 L 783.315 252.5 L 786.64 258 L 794.621 260 C 796.438 254.714 799.862 249.718 805.263 246 L 805.263 246 L 820.56 239.5 C 826.402 236.396 826.679 230.347 825.881 225.5 L 825.881 225.5 L 822.555 222 L 821.225 224 C 819.313 226.367 815.12 226.364 811.914 226 L 811.914 226 L 809.253 223 C 807.399 225.323 802.748 224.575 799.942 224 L 799.942 224 L 793.956 220.5 L 789.966 211.5 C 790.354 210.156 790.935 208.838 791.774 207.609 C 792.96 205.872 794.02 205.024 795.931 203.734 C 802.376 199.382 807.017 210.056 801.272 212 C 799.014 212.764 794.684 212.885 793.291 211 L 793.291 211 L 792.626 212.5 L 798.612 221 L 806.593 222 L 809.918 220.5 L 815.239 211.5 L 808.588 209.5 C 808.123 207.285 808.472 204.597 811.914 204 L 811.914 204 L 817.9 207.5 C 815.15 208.648 815.925 211.658 816.569 213.5 L 816.569 213.5 L 821.89 216.5 C 830.004 222.635 831.241 234.651 821.89 240.5 L 821.89 240.5 L 831.201 244.5 L 834.527 248 L 839.183 247.5 L 840.513 245.5 L 835.192 242.5 L 833.862 236.5 Q 834.527 233.5 839.848 234 Q 844.171 236.75 844.503 242.5 L 839.848 249 L 835.192 250.5 C 838.956 252.386 837.53 256.848 836.522 259.5 L 836.522 259.5 L 833.862 260.5 L 833.197 262 L 823.885 264 L 821.89 260.5 L 825.216 262 L 833.862 258.5 C 834.933 253.667 834.893 247.261 827.876 245 L 827.876 245 L 819.895 247 L 817.9 246.5 L 817.234 248 L 815.239 248.5 Q 808.826 259.179 811.249 276.5 Q 814.398 288.132 825.216 294 Q 833.363 292.625 836.522 287.5 L 827.211 283.5 C 826.361 280.013 825.966 275.206 830.536 273 L 830.536 273 L 837.852 275.5 L 839.183 287.5 L 830.536 295 L 827.211 295.5 L 827.876 297 C 832.808 299.521 839.693 298.854 845.168 298 L 845.168 298 L 855.145 292.5 L 856.475 288.5 L 856.475 286.5 L 857.805 282.5 L 856.475 279.5 C 859.224 278.352 858.45 275.342 857.805 273.5 L 857.805 273.5 L 857.805 258.5 C 854.377 256.86 855.589 252.88 856.475 250.5 L 856.475 250.5 L 856.475 248.5 C 856.085 240.351 853.304 231.79 845.168 226 L 845.168 226 L 840.513 223.5 C 833.894 217.464 833.113 208.969 833.862 201.5 L 833.862 201.5 L 834.527 200 C 828.774 200.391 821.952 200.032 817.9 196.5 L 817.9 196.5 L 817.234 195 L 811.249 191.5 L 809.918 187.5 C 809.925 183.464 810.94 179.138 814.574 176 L 814.574 176 L 822.555 177 L 832.532 171.5 C 838.143 165.918 837.784 158.044 836.522 151.5 L 836.522 151.5 L 835.192 151.5 L 834.527 154 L 826.546 155 C 821.955 153.706 822.386 149.426 823.22 146.5 L 823.22 146.5 L 825.216 144 C 835.018 142.526 839.37 149.575 839.7 156.048 C 840.048 162.855 838.588 172.731 829.206 176 L 829.206 176 L 821.89 179.5 C 825.654 181.386 824.228 185.848 823.22 188.5 L 823.22 188.5 L 819.23 194.5 L 831.867 198 L 836.522 196.5 C 837.988 192.156 841.285 188.292 846.499 186 L 846.499 186 L 849.824 185.5 C 845.063 182.875 847.116 176.983 848.494 173.5 L 848.494 173.5 L 851.819 168 L 853.815 167.5 L 855.81 165 C 861.134 164.199 865.172 168.58 860.559 171.695 C 860.346 171.839 860.067 171.92 859.8 172 L 859.8 172 L 854.48 173 L 851.819 172 C 849.342 175.104 849.309 179.015 849.824 182.5 L 849.824 182.5 L 853.15 186 Q 863.126 185 864.456 190.5 Q 874.433 196 871.107 211.5 Q 869.32 215.656 861.131 215 L 860.466 212.5 C 863.556 211.106 862.561 207.61 861.796 205.5 L 861.796 205.5 L 855.81 200 C 851.118 199.608 846.572 200.613 845.833 204.5 L 845.833 204.5 L 844.503 216.5 L 849.159 222 L 859.135 226.5 C 867.74 232.619 873.614 240.539 877.093 249 L 877.093 249 L 879.088 249.5 Q 890.578 269.362 887.734 300 Q 895.272 299.333 898.376 302 L 909.682 294.5 C 924.922 281.147 927.892 262.44 926.975 245.5 L 926.975 245.5 L 924.314 244.5 C 924.01 250.042 922.186 255.845 916.998 260 L 916.998 260 L 909.017 261 L 903.032 257.5 L 901.036 252 C 896.081 252.128 890.704 251.157 888.399 247.5 L 888.399 247.5 L 885.739 243.5 L 889.065 237 L 894.385 236 C 897.449 238.084 897.053 241.75 896.381 244.5 L 896.381 244.5 L 891.06 246.5 Q 892.847 250.656 901.036 250 Q 902.44 245.556 910.348 246 L 913.673 247.5 L 916.333 255.5 L 914.338 258 L 918.994 255.5 L 924.314 238.5 L 918.329 233 L 916.333 232.5 L 915.668 231 C 913.07 228.767 908.644 228.68 905.027 229 L 905.027 229 L 898.376 231 L 897.711 229.5 C 901.162 229.129 902.042 226.806 901.701 224.5 L 901.701 224.5 L 893.72 220.5 C 889.717 215.083 889.193 208.554 889.73 202.5 L 889.73 202.5 L 896.381 189.5 C 895.63 184.614 893.529 179.704 889.065 176 L 889.065 176 L 887.069 176.5 L 886.404 178 L 884.409 178.5 L 882.414 181 L 877.093 182 L 873.767 180.5 L 872.437 175.5 L 877.093 170 L 883.744 169 L 891.06 173.5 L 898.376 189 L 905.027 186 L 909.017 187 L 913.673 184.5 L 917.664 174.5 Q 909.849 174.375 907.022 170.5 Q 905.636 163.958 910.348 162 Q 916.333 161 917.664 163.5 Q 922.541 167.833 920.324 177.5 L 913.008 188 L 909.682 189.5 L 913.673 195.5 L 907.687 204 C 902.6 204.308 897.003 203.478 895.05 199.5 L 895.05 199.5 L 894.385 197 L 891.06 205.5 Q 890.603 217.344 899.706 222 Q 914.227 221.083 920.989 226 Q 931.797 224.625 936.286 218.5 Q 937.616 214 934.291 213 Q 927.64 213.5 926.975 209.5 L 928.305 200.5 L 925.645 199.5 L 922.984 191.5 L 931.631 178 L 933.626 177.5 L 934.291 176 L 939.612 174 L 948.258 178.5 L 950.918 183.5 L 948.923 186 L 939.612 187 L 933.626 185.5 L 931.631 183 C 925.389 185.272 924.878 190.933 925.645 195.5 L 925.645 195.5 L 931.631 201 L 934.956 201.5 L 938.281 206 L 940.942 203 C 943.601 200.218 948.965 200.468 952.914 201 L 952.914 201 L 956.239 202.5 C 961.384 205.629 962.872 210.756 962.89 215.5 L 962.89 215.5 L 959.564 219 L 954.909 216.5 L 955.574 209 L 957.569 209.5 L 956.239 215.5 L 959.564 216 L 960.23 210.5 L 952.914 203 C 949.022 202.373 943.329 202.048 941.607 205.5 L 941.607 205.5 L 938.947 210.5 L 938.947 212.5 C 939.117 216.735 937.928 221.445 932.961 224 L 932.961 224 L 924.314 227.5 L 932.961 235 L 934.956 235.5 L 936.951 238 L 940.277 238.5 L 940.942 240 L 944.932 241 L 948.258 239.5 L 948.923 238 L 950.918 237.5 C 957.423 235.196 957.285 229.046 956.239 224.5 L 956.239 224.5 L 954.244 224 L 953.579 229.5 C 955.692 230.383 954.714 231.385 952.914 232 L 952.914 232 L 950.918 224.5 L 952.914 222 L 957.569 222.5 L 958.899 230.5 L 952.914 241 L 950.918 241.5 L 956.904 248 L 962.225 249 C 964.819 248.237 969.33 246.467 965.55 244.5 L 965.55 244.5 L 964.22 239.5 L 967.546 235 L 972.201 236.5 L 973.531 241.5 L 967.546 249 L 959.564 251 L 952.248 247.5 L 950.253 244 L 946.263 242 L 942.272 243 L 938.947 241.5 C 948.143 254.18 949.441 269.366 948.258 283.5 L 948.258 283.5 L 946.928 286.5 L 948.258 286.5 L 950.253 284 L 952.248 283.5 L 952.914 282 L 958.234 281 L 964.22 284.5 C 967.814 289.28 967.738 295.214 966.88 300.5 L 966.88 300.5 L 962.225 306 L 956.239 303.5 L 954.909 299.5 L 959.564 297 L 964.885 300 L 965.55 292.5 L 962.225 286 C 959.602 282.339 953.144 283.79 950.503 286.438 C 948.616 288.329 947.83 290.684 947.593 293 L 947.593 293 L 945.597 292.5 Q 943.84 310.679 930.965 320.5 Q 946.263 332 942.937 357.5 Q 942.161 364.417 936.951 368 L 934.956 368.5 L 927.64 375 C 923.329 375.42 917.92 375.353 915.003 372.5 L 915.003 372.5 L 915.668 370 C 926.754 372.161 932.27 365.481 930.965 357.5 C 930.025 351.748 926.283 346.162 919.659 343 L 919.659 343 L 907.687 342 L 903.032 344.5 C 885.008 362.133 885.99 392.226 902.036 410.498 C 904.427 413.22 907.212 415.746 910.348 418 L 910.348 418 L 912.343 418.5 L 923.649 428 L 937.616 435.5 L 939.612 438 L 948.258 441.5 L 948.923 443 L 952.248 444.5 L 960.895 454 L 962.89 454.5 C 966.678 461.74 972.197 468.474 979.517 474 L 979.517 474 L 981.513 474.5 L 982.178 476 L 985.503 477.5 L 984.838 479 L 766.022 478.5 C 773.671 434.125 791.012 389.861 824.551 352.5 L 824.551 352.5 L 814.574 351 L 811.914 351 L 803.268 346.5 C 787.488 333.416 782.853 315.133 782.65 298 L 782.65 298 L 775.999 299 L 767.352 293.5 L 766.687 289 L 764.692 289.5 L 768.683 306.5 Q 765.357 308 770.013 309.5 Q 774.225 325.167 767.352 332.5 Q 770.678 334 766.022 335.5 Q 766.133 348.083 757.376 354 L 754.051 355.5 L 750.725 359 C 744.986 361.827 737.073 361.009 730.772 360 L 730.772 360 L 723.456 356.5 L 720.796 352.5 L 722.791 350 L 724.787 350.5 L 725.452 352 L 728.777 352.5 L 729.442 354 L 740.749 353.5 L 741.414 352 L 746.07 349.5 Q 750.371 341.234 750.06 329.5 Q 750.681 312.533 740.084 304 Q 740.749 317.5 730.772 323 L 722.791 324 C 714.578 321.863 713.307 315.221 714.145 309.5 L 714.145 309.5 L 716.14 307 L 724.787 307.5 L 725.452 309 L 730.107 311.5 L 730.772 314 L 732.768 313.5 C 735.71 308.549 735.211 302.715 734.098 297.5 L 734.098 297.5 L 729.442 292 L 723.456 289.5 L 722.791 288 C 718.263 285.632 711.892 286.223 706.829 287 L 706.829 287 L 698.183 290.5 Q 675.226 311.242 684.881 356.5 Q 711.074 431.809 760.702 489.5 L 756.046 491 L 754.716 489 L 738.088 489.5 L 737.423 491 C 721.615 494.047 705.137 494.845 688.871 494.5 L 688.871 494.5 L 688.206 496 L 618.372 495.5 L 617.707 494 L 599.749 492.5 L 599.084 491 L 593.098 488.5 Q 589.773 485 591.768 477.5 Q 602.801 470.794 599.749 453.5 Q 593.098 448.5 591.768 439.5 L 595.093 438 L 602.409 441.5 L 603.074 443 L 606.4 443.5 L 607.065 445 C 613.917 444.356 612.535 448.519 614.083 451.974 C 614.993 454.005 616.658 455.804 619.037 457 L 619.037 457 L 622.362 455.5 Q 635.706 442.532 641.65 424 Q 654.214 405.446 648.966 373.5 Q 645.387 356.69 632.339 347 L 627.018 345 L 613.051 352.5 L 614.381 356.5 L 609.725 361 L 605.735 360 C 601.625 361.03 604.187 365.981 604.98 367.818 C 608.066 374.971 611.957 381.808 617.707 388 L 617.707 388 L 622.362 390.5 L 625.023 395.5 C 621.929 397.403 617.461 397.367 613.716 397 L 613.716 397 L 601.744 393 L 595.093 394 L 591.103 392 C 589.146 405.58 575.011 412.848 557.848 411 L 557.848 411 L 557.183 409.5 L 561.839 405 L 565.164 404.5 C 572.342 398.806 575.833 391.157 577.136 383.5 L 577.136 383.5 L 567.159 375 C 564.124 372.016 558.184 372.385 553.858 373 L 553.858 373 L 545.211 378.5 C 525.395 393.398 532.554 420.01 543.329 436.853 C 546.325 441.536 549.89 446.016 554.042 450.174 C 554.854 450.986 559.119 456.163 561.766 456.07 C 568.74 455.825 565.575 449.257 571.15 447 L 571.15 447 L 585.782 442 Q 592.766 444.75 585.117 447.5 Q 579.131 452 581.126 462.5 Q 590.355 466.063 589.108 477.5 L 579.131 483 L 576.471 483 Q 543.472 488.692 497.99 485 Q 477.855 485.637 463.405 482 Q 461.41 484.5 459.414 481 L 436.801 480 L 436.136 484.5 L 438.796 492.5 L 223.306 493.5 L 227.962 499 L 231.952 497 L 232.618 499.5 L 213.33 500 Q 190.56 492.118 152.141 496 Q 147.486 500.5 132.188 497 L 73.66 497 L 71.665 494.5 L 76.321 490 L 78.316 489.5 L 78.981 488 L 83.637 485.5 L 86.962 479 L 91.618 476.5 Q 113.179 454.209 112.901 415.5 Q 111.426 388.609 92.283 375 Q 86.962 370 73.66 371 Q 64.295 375.46 66.344 388.5 L 69.005 389.5 L 73.66 385 C 76.606 384.65 80.182 384.912 80.976 387.5 L 80.976 387.5 L 82.306 393.5 L 77.651 400 C 64.562 401.2 62.742 387.247 63.684 380.5 L 63.684 380.5 L 66.344 375.5 L 64.349 375 L 55.703 380.5 C 42.183 391.407 39.194 407.168 39.741 421.5 L 39.741 421.5 L 41.071 424.5 L 39.075 425 C 32.068 419.643 33.204 411.254 34.42 404.5 C 36.932 390.547 41.811 376.812 52.377 365 L 52.377 365 L 57.033 362.5 L 68.34 353 L 71.665 352.5 L 62.354 349.5 L 61.689 348 L 55.038 354 C 49.681 354.683 42.509 354.742 39.741 350.5 L 39.741 350.5 L 38.41 339.5 Q 40.738 337.25 47.057 338 Q 51.38 339.75 49.052 346.5 L 47.057 349 L 43.731 349.5 L 51.047 352 L 57.033 349.5 L 59.693 345.5 C 53.293 339.619 53.919 329.365 58.027 322.747 C 59.445 320.462 62.937 316.033 66.864 315.859 C 68.777 315.775 70.955 315.9 71.665 317.5 L 71.665 317.5 L 74.99 322 C 84.021 323.358 88.028 313.58 87.627 308.5 L 87.627 308.5 L 85.632 309 C 78.355 309.684 75.769 300.377 81.641 298 L 81.641 298 L 84.967 298.5 L 85.632 300 L 88.957 301.5 L 90.288 312.5 L 80.311 325 L 72.995 326.5 C 72.813 329.1 71.541 331.704 68.34 333 L 68.34 333 L 61.689 334 L 57.698 332 L 58.363 333.5 C 58.112 341.911 63.455 351.138 76.321 350 L 76.321 350 L 78.981 349 C 81.894 352.441 88.013 350.2 91.298 348.822 C 95.65 346.997 101.102 347.998 105.585 349 L 105.585 349 L 108.245 350 L 108.91 348.5 C 94.441 331.573 93.32 309.934 95.608 290.5 L 95.608 290.5 L 102.259 266.5 C 109.551 260.011 108.267 245.067 100.264 239 L 100.264 239 L 96.939 238.5 L 96.273 237 C 81.903 235.591 78.364 245.271 79.646 254.5 L 79.646 254.5 L 81.641 259 Q 86.962 259.5 87.627 256.5 Q 84.169 255.1 84.967 250.5 L 89.622 246 L 94.278 247.5 C 95.485 252.717 95.102 259.368 86.962 261 L 86.962 261 L 79.646 260.5 C 76.46 256.282 75.597 251.279 75.656 246.5 L 75.656 246.5 L 78.316 241.5 C 75.744 240.34 77.667 239.137 79.646 238.5 L 79.646 238.5 L 81.641 236 L 87.627 233.5 L 88.292 232 L 92.948 230.5 L 93.613 229 Q 104.91 228.993 110.24 224.5 Q 114.497 222.2 112.901 215.5 Q 103.7 215.917 100.264 212 Q 96.606 215.75 84.302 213 Q 73.328 206.25 76.986 188.5 Q 78.648 184.75 86.962 186 Q 93.724 189.417 92.948 198.5 L 86.962 204 L 81.641 203 L 80.976 205.5 L 85.632 210 L 94.943 211 L 99.599 208.5 C 98.223 204.362 101.324 197.096 108.557 202.016 C 111.068 203.724 113.988 208.332 114.784 210.709 C 116.08 214.581 116.149 218.548 115.561 222.5 L 115.561 222.5 L 111.571 227.5 L 122.212 234.5 L 124.207 237 L 130.858 229 L 136.844 225.5 C 126.107 219.966 124.148 209.567 124.872 200.5 L 124.872 200.5 L 126.203 198.5 C 112.488 191.438 110.414 177.996 111.571 166.5 L 111.571 166.5 L 117.556 160 L 123.542 160.5 L 124.872 169.5 L 117.556 172 L 114.896 171 L 114.231 178.5 C 115.922 185.165 119.851 191.57 126.868 196 L 126.868 196 L 136.179 195 C 137.252 198.226 141.834 198.458 145.49 198 L 145.49 198 L 147.486 188.5 C 143.914 188.744 139.756 188.275 138.174 185.5 L 138.174 185.5 L 140.17 179 C 150.11 177.505 150.7 189.76 150.146 194.5 L 150.146 194.5 L 145.49 201 L 139.504 201.5 L 138.839 205 C 136.035 205.502 131.674 205.949 130.193 203.5 L 130.193 203.5 L 129.528 202 L 128.863 211.5 C 129.671 215.792 132.336 219.819 137.509 222 L 137.509 222 L 141.5 223 C 143.489 219.379 148.822 218.705 153.471 219 L 153.471 219 L 152.806 220.5 C 145.185 225.506 138.876 232.978 136.844 240.5 C 135.603 245.097 146.49 245.341 149.481 245 L 149.481 245 L 156.797 242.5 L 157.462 241 L 170.099 234.5 L 175.42 226.5 L 168.769 223.5 L 164.778 211.5 Q 170.194 209.571 168.769 202.5 Q 159.291 194.625 164.778 175.5 Q 168.436 173.25 168.103 168 Q 170.289 164.143 178.745 165 Q 184.398 166.75 182.07 174.5 L 174.754 175 L 170.764 173 C 164.451 178.442 165.725 187.026 167.438 193.5 L 167.438 193.5 L 172.759 204.5 L 171.429 206.5 L 179.41 211.5 L 182.736 222 C 195.843 223.423 204.202 214.927 204.684 205.5 L 204.684 205.5 L 195.372 203.5 C 191.95 199.898 191.431 187.861 201.358 191 C 209.126 193.456 208.481 202.933 207.703 207.792 C 206.924 212.665 203.292 217.153 199.051 220.766 C 196.587 222.865 192.319 222.364 188.873 223.114 C 184.912 223.975 181.136 225.401 178.08 227.5 L 178.08 227.5 L 169.434 239 C 164.92 246.981 153.219 248.585 142.83 248 L 142.83 248 L 136.844 244.5 L 136.179 243 L 134.184 243.5 C 121.313 261.664 128.332 287.739 136.537 305.981 C 139.705 313.025 142.723 322.843 154.802 322 L 154.802 322 L 156.132 319 L 160.787 318.5 L 164.778 314.5 C 146.675 315.73 142.174 300.367 142.165 289.5 L 142.165 289.5 L 145.49 285 L 154.137 285.5 L 155.467 291.5 L 150.811 296 L 146.155 296.5 C 147.049 302.073 149.971 307.566 156.132 311 L 156.132 311 L 162.783 312 L 164.778 311.5 L 165.443 313 L 168.769 311.5 C 171.352 305.755 171.113 299.436 170.099 293.5 L 170.099 293.5 L 166.108 288.5 L 169.434 288 L 172.094 291 L 174.089 291.5 Q 173.369 302.542 182.736 306 Q 193.266 301.417 192.712 288.5 L 190.717 289 C 187.149 289.536 182.147 289.673 180.74 286.5 L 180.74 286.5 L 178.745 274 L 175.42 272.5 C 169.062 266.852 169.879 258.259 171.429 251.5 L 171.429 251.5 L 174.089 250.5 L 174.754 249 L 184.066 248 L 184.731 254.5 L 181.405 259 L 174.089 259.5 Q 173.05 266.781 177.415 270 Q 184.921 269.357 186.726 273 Q 189.719 269.75 192.712 275.5 Q 196.85 281.889 195.372 292.5 Q 193.503 303.595 184.066 309 L 182.07 309.5 C 180.328 315.212 178.623 323.587 185.396 328 L 185.396 328 L 189.386 329 L 198.033 324.5 L 197.368 323 L 192.712 322.5 L 191.382 311.5 C 192.176 308.912 195.752 308.65 198.698 309 L 198.698 309 L 200.028 311 L 202.023 311.5 L 204.684 320.5 L 194.707 330 L 188.056 332 L 182.736 329 L 172.759 343.5 Q 178.365 347.786 192.047 346 Q 204.505 341.365 212.665 333.5 Q 222.466 323.868 220.646 305.5 Q 216.012 300.983 215.99 293 L 213.995 292.5 C 204.497 285.646 203.579 274.764 204.684 265.5 L 204.684 265.5 L 209.339 258 L 211.335 257.5 C 211.097 250.176 213.993 238.566 226.632 240 L 226.632 240 L 232.618 243.5 L 233.283 246 L 233.948 240.5 C 227.785 236.897 231.748 230.049 232.618 225.5 C 234.997 213.045 236.262 201.178 243.259 189.5 L 243.259 189.5 L 241.264 189 L 237.273 190 L 234.613 189 L 231.952 192 L 229.957 192.5 L 226.632 198 L 217.32 200 L 210.004 196.5 C 205.329 193.267 205.273 187.875 206.014 183.5 L 206.014 183.5 L 208.009 181 C 210.149 180.678 213.151 180.596 213.995 182.5 L 213.995 182.5 L 215.325 189.5 L 211.335 194.5 L 219.981 198 L 227.297 193.5 L 229.957 188.5 L 227.297 184.5 L 227.962 183 L 225.967 182.5 C 219.61 178.051 220.532 170.263 221.976 164.5 L 221.976 164.5 L 227.962 164 C 231.915 165.6 230.864 169.87 229.957 172.5 L 229.957 172.5 L 227.962 176 C 226.162 175.385 225.184 174.383 227.297 173.5 L 227.297 173.5 L 226.632 166 L 223.306 167.5 C 222.686 172.121 223.051 177.647 227.962 181 L 227.962 181 L 229.957 181.5 L 234.613 186 L 238.603 187 L 243.259 184.5 L 243.924 183 L 245.254 185 L 255.896 174 L 257.891 173.5 L 260.551 170.5 L 248.58 164.5 C 243.873 160.04 242.961 154.001 243.259 148.5 L 243.259 148.5 L 244.589 146.5 L 238.603 140 L 229.292 139 L 225.967 140.5 C 221.431 143.93 219.694 148.798 219.316 153.5 L 219.316 153.5 L 221.311 156 L 223.306 155.5 L 223.971 146 C 229.908 148.678 228.205 159.773 219.981 159 L 219.981 159 L 216.655 152.5 C 217.112 147.07 219.412 141.486 225.302 138 L 225.302 138 L 237.273 137 L 241.929 139.5 L 243.924 142 L 245.919 141.5 L 249.245 137 L 253.901 136.5 C 259.993 133.103 260.127 126.628 259.221 121.5 L 259.221 121.5 L 253.235 114 L 249.91 115.5 L 249.245 117 C 245.606 119.26 240.404 119.357 235.943 119 L 235.943 119 L 232.618 117.5 L 231.287 110.5 L 239.934 103 L 243.924 102 L 249.91 105.5 L 251.905 108 L 253.901 108.5 C 253.556 111.173 253.927 114.395 257.226 116 L 257.226 116 L 259.221 116.5 L 261.882 127.5 L 258.556 135 L 256.561 135.5 L 255.231 137.5 C 258.931 139.499 258.598 143.532 257.891 146.5 L 257.891 146.5 L 254.566 151 L 245.919 152.5 C 246.362 157.984 249.133 163.347 255.896 166 L 255.896 166 L 263.877 169 C 269.177 160.306 287.058 169.58 292.476 160.5 L 292.476 160.5 L 297.797 142.5 C 298.453 139.274 298.526 135.056 294.471 133 L 294.471 133 L 289.15 138 C 286.866 140.576 282.084 140.448 278.509 140 L 278.509 140 L 272.523 129.5 L 276.514 121.5 L 272.523 119.5 C 263.867 111.983 264.167 100.746 265.872 91.5 L 265.872 91.5 L 270.528 86 Q 276.846 85.25 277.844 88.5 Q 280.948 91.667 279.174 98.5 Q 275.89 102.531 267.202 102.5 Q 268.2 112.75 275.849 118 L 279.839 119 L 283.83 118 L 289.15 121 Q 292.127 105.238 303.783 96 Q 313.426 94.75 316.419 98.5 Q 319.84 101.429 319.08 107.5 L 314.424 112 C 311.211 112.295 307.263 112.037 305.778 109.5 L 305.778 109.5 L 301.122 103 Q 292.971 110.872 292.476 124.5 Q 300.59 131.9 299.127 146.5 Q 299.26 161.1 287.82 167 L 285.825 167.5 L 289.816 174.5 L 287.82 175 C 286.033 171.846 281.107 171.602 277.179 172 L 277.179 172 L 269.863 175.5 L 269.198 177 L 267.202 177.5 L 260.551 187.5 C 260.491 195.505 262.61 204.181 270.528 210 L 270.528 210 L 272.523 209.5 C 269.096 207.782 269.267 204.187 269.863 201.5 L 269.863 201.5 L 274.518 195 C 280.207 194.671 286.888 195.219 290.481 199 L 290.481 199 L 297.797 195.5 L 292.476 193.5 L 291.146 187.5 L 294.471 182 C 297.93 182.137 301.393 183.093 303.117 185.5 L 303.117 185.5 L 302.452 194 L 300.457 194.5 C 300.805 197.118 299.678 199.636 295.801 200 L 295.801 200 L 285.825 202.5 C 286.277 205.455 286.05 209.102 282.5 211 L 282.5 211 L 273.188 213 L 265.872 209.5 L 259.886 192 Q 254.275 197.281 256.561 208.5 Q 260.868 246.262 289.15 266 Q 293.869 263.048 303.117 263.5 Q 298.861 253.2 301.787 237.5 Q 303.095 190.983 335.707 168 L 347.014 162.5 C 349.463 159.567 350.324 155.999 350.458 152.589 C 350.624 148.344 350.484 141.686 346.411 138.203 C 343.555 135.762 338.119 134.678 334.408 136.898 C 329.548 139.806 330.011 146.591 331.051 150.5 L 331.051 150.5 L 332.382 153.5 L 323.735 154 C 320.307 151.672 318.996 148.191 318.728 144.827 C 317.869 134.076 324.533 123.66 335.707 117 L 335.707 117 L 341.693 116.5 C 345.453 112.186 344.366 106.237 343.023 101.5 L 343.023 101.5 L 341.028 99 L 334.377 100 C 330.156 98.942 330.338 95.182 331.051 92.5 L 331.051 92.5 L 333.047 90 C 339.353 89.661 341.267 91.463 343.023 95.5 C 345.987 102.315 347.004 108.269 345.683 115.5 L 345.683 115.5 L 345.018 117 L 354.995 122.5 L 360.981 132 L 366.301 133 L 378.938 127.5 C 373.009 123.6 372.766 116.937 373.617 111.5 L 373.617 111.5 L 374.947 109.5 L 371.622 106 L 362.976 101.5 C 353.872 93.054 355.272 80.468 357.655 70.5 L 357.655 70.5 L 362.311 65 L 364.971 64 Z " fill="rgb(5,5,5)"/><path d=" M 364.971 67 L 372.287 67.5 L 370.292 75 C 367.825 75.412 364.136 75.68 362.976 73.5 L 362.976 73.5 L 361.646 69.5 L 364.971 67 Z  M 271.858 89 L 275.184 89.5 L 276.514 96.5 C 275.092 101.13 265.821 99.692 267.202 94.5 L 267.202 94.5 L 271.858 89 Z  M 609.725 91 L 615.711 91.5 L 617.041 94.5 L 612.386 97 C 608.686 96.043 608.475 93.431 609.725 91 L 609.725 91 Z  M 334.377 93 L 340.363 96.5 L 335.707 97 C 332.916 96.067 330.97 94.464 334.377 93 L 334.377 93 Z  M 306.443 98 C 309.655 97.705 313.604 97.963 315.089 100.5 L 315.089 100.5 L 316.419 107.5 L 314.424 110 C 311.478 110.35 307.902 110.088 307.108 107.5 L 307.108 107.5 L 303.117 100.5 L 306.443 98 Z  M 644.31 100 C 646.843 100.635 646.734 102.891 646.306 104.5 L 646.306 104.5 L 640.32 105 L 639.655 102.5 L 644.31 100 Z  M 242.594 105 L 249.91 109.5 C 250.375 111.715 250.027 114.403 246.584 115 L 246.584 115 L 235.943 116 L 232.618 112.5 L 235.943 109 L 237.938 108.5 L 239.934 106 L 242.594 105 Z  M 379.603 108 L 384.259 109.5 C 387.001 112.298 386.416 116.313 385.589 119.5 L 385.589 119.5 L 380.933 125 L 378.938 124.5 C 375.407 120.82 375.523 115.788 376.278 111.5 L 376.278 111.5 L 379.603 108 Z  M 589.773 113 L 593.098 113.5 L 592.433 115 L 589.108 116.5 L 588.442 119 C 586.642 118.385 585.664 117.383 587.777 116.5 L 587.777 116.5 L 589.773 113 Z  M 282.5 121 L 291.146 125.5 L 293.806 129.5 L 290.481 134 L 281.169 138 C 272.579 133.625 274.422 124.929 282.5 121 L 282.5 121 Z  M 653.622 125 L 656.947 125.5 C 657.278 127.494 656.644 129.621 653.622 130 L 653.622 130 L 650.296 128.5 L 653.622 125 Z  M 685.546 125 L 690.202 127.5 L 692.862 132.5 C 692.358 134.772 689.528 135.249 686.876 135 L 686.876 135 L 683.551 133.5 L 682.221 127.5 L 685.546 125 Z  M 620.367 131 L 625.023 131.5 C 625.531 134.175 625.383 137.615 621.697 139 L 621.697 139 L 618.372 138.5 L 616.376 136 L 614.381 135.5 L 616.376 132 L 620.367 131 Z  M 251.905 139 L 255.231 140.5 C 255.854 143.441 255.892 147.343 251.905 149 L 251.905 149 L 245.919 148.5 L 249.245 140 L 251.905 139 Z  M 583.122 139 L 587.777 139.5 L 584.452 144 L 579.796 143.5 C 579.465 141.506 580.099 139.379 583.122 139 L 583.122 139 Z  M 737.423 139 L 743.409 139.5 L 746.07 143.5 L 742.079 145.5 L 741.414 147 L 735.428 146.5 L 734.098 143.5 L 737.423 139 Z  M 400.886 142 L 406.872 145.5 L 404.877 148 L 400.221 146.5 L 400.886 142 Z  M 379.603 156 C 382.255 155.751 385.085 156.228 385.589 158.5 L 385.589 158.5 L 386.919 165.5 L 380.933 166 C 377.057 165.636 375.929 163.118 376.278 160.5 L 376.278 160.5 L 379.603 156 Z  M 118.887 163 L 122.212 164.5 L 121.547 168 L 118.887 169 L 115.561 167.5 C 115.23 165.506 115.864 163.379 118.887 163 L 118.887 163 Z  M 419.509 164 L 424.164 165.5 L 423.499 170 L 420.174 169.5 L 417.513 165.5 L 419.509 164 Z  M 688.206 164 L 696.853 168.5 L 694.857 171 L 684.881 166.5 L 685.546 165 L 688.206 164 Z  M 911.678 164 L 916.333 165.5 L 917.664 171.5 L 913.008 172 C 909.566 171.403 909.217 168.715 909.682 166.5 L 909.682 166.5 L 911.678 164 Z  M 176.085 167 L 180.74 169.5 L 180.075 172 L 172.759 170.5 L 176.085 167 Z  M 591.103 167 L 594.428 167.5 L 593.763 170 L 590.438 170.5 L 589.773 172 L 587.777 169.5 L 591.103 167 Z  M 724.121 167 L 734.098 167.5 L 733.433 174 L 730.772 173 L 728.112 174 C 724.054 172.728 722.625 170.08 724.121 167 L 724.121 167 Z  M 879.753 171 C 882.699 170.65 886.275 170.912 887.069 173.5 L 887.069 173.5 L 879.753 180 L 875.098 178.5 L 875.763 173 L 879.753 171 Z  M 939.612 176 L 948.258 181.5 L 946.263 185 C 942.619 185.355 935.705 185.541 933.626 182.5 C 932.638 181.056 933.474 178.538 935.621 178 L 935.621 178 L 939.612 176 Z  M 815.904 178 L 821.89 181.5 C 822.398 185.06 822.201 189.318 818.565 192 L 818.565 192 L 813.909 189.5 L 812.579 183.5 L 815.904 178 Z  M 356.99 181 L 360.315 182.5 C 360.824 185.175 360.676 188.615 356.99 190 L 356.99 190 L 353.665 189.5 C 352.831 186.574 352.399 182.294 356.99 181 L 356.99 181 Z  M 209.339 183 L 211.335 183.5 L 212.665 189.5 L 210.669 193 L 207.344 186.5 L 209.339 183 Z  M 295.801 184 L 300.457 186.5 C 301.005 188.355 301.362 191.128 298.462 192 L 298.462 192 L 293.806 190.5 C 293.138 188.392 292.544 185.113 295.801 184 L 295.801 184 Z  M 415.518 185 L 418.844 186.5 L 421.504 192.5 L 419.509 199 L 414.853 197.5 L 413.523 186.5 L 415.518 185 Z  M 81.641 189 C 84.587 188.65 88.163 188.912 88.957 191.5 L 88.957 191.5 L 90.288 197.5 L 86.962 201 L 82.306 200.5 L 81.641 199 L 79.646 198.5 C 78.619 195.604 77.346 190.845 81.641 189 L 81.641 189 Z  M 902.366 189 C 905.849 188.738 909.198 189.586 909.682 192.5 L 909.682 192.5 L 911.013 196.5 L 906.357 202 L 896.381 197.5 L 895.05 195.5 L 899.706 190 L 902.366 189 Z  M 198.698 193 L 202.023 194.5 L 204.684 201.5 L 200.028 202 L 196.703 200.5 C 195.915 198.133 195.09 194.356 198.698 193 L 198.698 193 Z  M 432.811 196 L 436.136 197.5 L 435.471 202 L 432.811 203 L 432.811 196 Z  M 132.188 198 L 136.844 198.5 L 138.174 202.5 L 133.519 203 L 130.193 199.5 L 132.188 198 Z  M 274.518 198 C 276.986 197.588 280.674 197.32 281.834 199.5 L 281.834 199.5 L 283.165 205.5 L 277.179 211 L 275.184 210.5 C 271.778 207.94 271.893 203.815 272.523 200.5 L 272.523 200.5 L 274.518 198 Z  M 758.706 198 L 763.362 199.5 L 762.697 203 L 756.711 202.5 C 756.283 200.891 756.174 198.635 758.706 198 L 758.706 198 Z  M 588.442 201 L 591.768 202.5 L 593.098 205.5 L 590.438 204.5 L 589.773 203 L 586.447 202.5 L 588.442 201 Z  M 930.3 203 L 934.956 204.5 L 937.616 210.5 L 931.631 211 L 928.305 205.5 L 930.3 203 Z  M 102.924 204 L 108.91 207.5 L 110.24 210.5 L 105.585 212 C 101.708 211.636 100.581 209.118 100.929 206.5 L 100.929 206.5 L 102.924 204 Z  M 798.612 205 L 800.607 208.5 L 795.951 210 C 791.673 207.99 795.333 206.027 798.612 205 L 798.612 205 Z  M 600.414 206 L 603.74 206.5 L 605.07 213.5 L 600.414 215 L 600.414 206 Z  M 170.764 210 L 175.42 211.5 L 179.41 218.5 L 177.415 224 L 170.099 220.5 L 168.769 211.5 L 170.764 210 Z  M 497.99 211 L 502.645 211.5 C 503.194 213.355 503.55 216.128 500.65 217 L 500.65 217 L 496.66 218 L 493.334 214.5 L 497.99 211 Z  M 557.848 215 C 561.404 214.741 565.69 215.02 567.825 217.5 L 567.825 217.5 L 560.508 221 C 557.305 219.754 556.574 217.432 557.848 215 L 557.848 215 Z  M 815.904 216 L 821.89 219.5 L 817.234 224 C 808.878 225.256 810.493 218.19 815.904 216 L 815.904 216 Z  M 446.112 221 C 448.58 220.588 452.268 220.32 453.428 222.5 L 453.428 222.5 L 454.759 224.5 C 453.964 227.088 450.389 227.35 447.443 227 L 447.443 227 L 446.112 225 L 444.117 224.5 L 446.112 221 Z  M 592.433 221 L 598.419 221.5 L 599.749 223.5 L 595.093 225 L 592.433 221 Z  M 644.31 222 L 651.626 223.5 L 654.287 226.5 C 647.556 230.596 650.885 239.461 652.956 244.5 L 652.956 244.5 L 652.956 246.5 L 649.631 258 L 647.636 258.5 L 640.32 268 L 633.004 267.5 C 635.746 264.702 635.161 260.687 634.334 257.5 L 634.334 257.5 L 632.339 255 L 628.348 254 C 623.027 255.818 622.9 260.727 623.692 264.5 L 623.692 264.5 L 629.678 271 L 637.659 273 L 646.971 267 L 647.636 268.5 C 644.577 282.25 638.294 295.799 627.018 307 L 627.018 307 L 627.683 305.5 C 628.099 303.401 628.286 301.24 627.839 299.133 C 627.159 295.925 623.907 292.14 619.037 292 C 608.192 291.687 604.613 303.132 613.716 307 L 613.716 307 L 617.707 308 L 623.027 306 L 622.362 307.5 L 621.697 309 C 617.061 308.561 611.236 308.718 608.395 312 L 608.395 312 L 602.409 308.5 C 598.535 301.991 598.649 294.439 599.749 287.5 L 599.749 287.5 L 601.744 285 C 607.114 284.468 612.377 282.837 615.711 279.5 L 615.711 279.5 L 612.386 276 L 601.744 275 L 598.419 276.5 L 597.754 278 L 593.098 280.5 L 585.782 290 L 582.457 279.5 L 585.782 276 L 591.768 272.5 L 593.098 264.5 L 591.103 262 C 587.851 261.556 583.553 261.614 582.457 264.5 L 582.457 264.5 L 580.461 267 C 578.321 266.678 575.32 266.596 574.475 268.5 L 574.475 268.5 L 572.48 276 L 569.155 274.5 L 566.494 270.5 Q 575.141 266 576.471 256 Q 577.468 258.75 583.122 258 L 589.108 254.5 C 594.894 251.732 596.095 246.302 595.758 241.5 L 595.758 241.5 L 593.763 239 Q 591.901 236.4 585.782 237 Q 579.962 238.625 581.126 245.5 Q 583.122 249 590.438 248.5 Q 587.578 253.35 579.131 254 Q 575.11 243.023 565.164 236.5 L 575.806 229.5 L 580.461 225 L 589.773 223 L 592.433 227 C 595.946 227.609 601.315 228.087 603.074 225 L 603.074 225 L 607.065 230 L 609.06 230.5 L 609.725 232 C 615.462 231.513 622.502 231.741 626.353 235.5 L 626.353 235.5 L 629.678 239 C 633.57 239.627 639.263 239.952 640.985 236.5 L 640.985 236.5 L 644.31 222 Z  M 781.319 222 L 784.645 223.5 L 781.319 227 L 777.994 225.5 L 781.319 222 Z  M 632.339 223 L 634.334 223.5 L 634.999 227 L 638.324 228.5 L 634.999 234 L 630.343 233.5 C 629.454 230.158 628.791 225.667 632.339 223 L 632.339 223 Z  M 362.311 232 L 366.966 233.5 C 367.874 236.13 368.924 240.4 364.971 242 L 364.971 242 L 358.32 243 L 357.655 237.5 L 362.311 232 Z  M 891.725 238 L 893.72 238.5 L 895.05 242.5 L 890.395 244 L 888.399 240.5 L 891.725 238 Z  M 968.876 238 L 970.871 238.5 L 968.876 245 C 965.975 244.128 966.332 241.355 966.88 239.5 L 966.88 239.5 L 968.876 238 Z  M 785.31 239 L 788.635 240.5 C 789.124 243.315 789.171 246.674 786.64 249 L 786.64 249 L 782.65 250 L 781.985 241.5 L 785.31 239 Z  M 495.329 240 L 501.315 240.5 L 491.339 244 L 490.674 242.5 L 495.329 240 Z  M 430.15 241 L 433.476 241.5 L 436.136 246.5 L 434.141 249 L 429.485 247.5 L 430.15 241 Z  M 455.424 241 L 464.07 241.5 C 464.401 243.494 463.767 245.621 460.745 246 L 460.745 246 L 454.759 245.5 L 455.424 241 Z  M 222.641 242 C 226.124 241.738 229.473 242.586 229.957 245.5 L 229.957 245.5 L 234.613 255 L 236.608 254.5 Q 234.945 259.25 237.938 260.5 Q 233.948 263.5 235.278 270.5 L 239.934 277 L 244.589 278.5 Q 249.577 280.75 248.58 287.5 Q 246.15 295.673 238.603 300 Q 227.999 300.972 224.636 296.5 L 213.33 285 L 211.335 284.5 C 207.528 279.386 206.92 273.236 207.344 267.5 L 207.344 267.5 L 210.669 262 L 215.99 270 C 219.242 270.444 223.54 270.386 224.636 267.5 L 224.636 267.5 L 225.967 262.5 L 219.316 259.5 L 215.99 256 L 213.995 255.5 C 214.043 250.219 216.133 244.714 222.641 242 L 222.641 242 Z  M 450.103 248 L 452.098 248.5 L 452.763 250 C 457.09 250.615 463.03 250.984 466.065 248 L 466.065 248 L 466.73 251.5 L 460.745 258 C 455.657 257.692 450.06 258.522 448.108 262.5 L 448.108 262.5 L 438.131 273 L 434.141 274 L 430.815 272.5 L 434.806 271.5 C 437.668 270.341 437.837 267.64 437.466 265.5 L 437.466 265.5 L 432.146 259.5 C 436.765 257.185 438.131 252.942 438.131 249 L 438.131 249 L 446.112 250 L 450.103 248 Z  M 907.687 249 C 915.975 247.754 916.1 256.609 910.348 259 L 910.348 259 L 904.362 255.5 C 903.771 253.056 903.848 249.825 907.687 249 L 907.687 249 Z  M 178.745 250 L 182.07 250.5 C 182.562 253.335 181.733 256.427 177.415 257 L 177.415 257 L 174.089 253.5 L 178.745 250 Z  M 761.367 252 C 765.149 253.926 766.884 257.19 767.352 260.5 L 767.352 260.5 L 765.357 261 L 764.027 259 L 760.702 257.5 L 761.367 252 Z  M 567.159 253 L 569.155 253.5 C 570.288 258.029 570.783 264.381 564.499 267 L 564.499 267 L 562.504 266.5 C 563.009 263.549 562.86 259.828 559.178 258 L 559.178 258 L 554.523 256.5 L 555.188 254 L 557.183 254.5 L 557.848 256 C 560.653 256.502 565.014 256.949 566.494 254.5 L 566.494 254.5 L 567.159 253 Z  M 549.867 256 L 551.862 256.5 C 548.856 259.235 548.727 263.147 549.202 266.5 L 549.202 266.5 L 551.197 269 C 554.389 271.769 559.103 273.073 563.834 273.5 L 563.834 273.5 L 569.82 279 L 575.806 282.5 Q 572.148 288.75 559.178 288 Q 557.682 281.625 551.197 279 L 535.235 278 L 531.244 279 L 531.909 277.5 C 532.089 272.241 533.841 266.662 539.226 263 L 539.226 263 L 549.867 256 Z  M 782.65 256 L 785.31 260 L 792.626 262.5 C 786.297 273.412 782.906 285.191 781.319 297 L 781.319 297 L 777.329 298 L 768.683 292.5 L 769.348 290 C 771.488 290.322 774.489 290.404 775.334 288.5 L 775.334 288.5 L 776.664 280.5 L 774.669 281 C 772.528 280.678 769.527 280.596 768.683 282.5 L 768.683 282.5 L 764.027 288 L 760.702 280.5 L 762.032 277.5 L 759.371 274.5 L 764.692 272.5 L 765.357 271 L 771.343 267.5 L 772.673 259.5 L 772.008 258 L 778.659 259 L 782.65 256 Z  M 629.678 258 C 632.578 258.872 632.222 261.645 631.673 263.5 L 631.673 263.5 L 628.348 264 L 626.353 261.5 L 629.678 258 Z  M 419.509 260 L 425.495 262.5 Q 420.506 264.25 422.834 271.5 Q 426.73 277.571 437.466 278.5 Q 433.919 282.333 436.136 290.5 Q 439.119 300.757 449.438 305.5 L 443.452 311 L 441.457 311.5 L 436.801 316 L 430.15 317 L 426.825 315.5 L 427.49 314 L 433.476 310.5 L 434.806 303.5 C 433.709 300.614 429.411 300.556 426.16 301 L 426.16 301 L 421.504 303.5 L 419.509 310 L 417.513 310.5 L 423.499 319 L 433.476 321.5 Q 418.954 335.083 421.504 361.5 Q 423.127 373.78 432.811 380 Q 438.796 387.5 458.084 385 L 464.07 382.5 L 466.73 378.5 L 463.405 377 C 461.414 381.063 454.746 380.74 450.103 380 L 450.103 380 L 442.787 375.5 C 443.235 373.591 443.12 371.114 440.127 370.5 L 440.127 370.5 L 441.457 368.5 L 438.796 364.5 L 441.457 360.5 L 441.457 358.5 L 440.127 354.5 L 448.773 343 C 449.09 348.49 451.56 354.057 458.084 357 L 458.084 357 L 464.735 358 C 472.085 357.263 474.075 352.455 473.381 347.5 L 473.381 347.5 L 471.386 345 C 466.742 344.497 460.833 344.725 458.749 348.5 L 458.749 348.5 L 458.084 350 L 456.089 349.5 C 451.533 344.577 453.417 336.333 459.649 332.739 C 465.519 329.355 473.712 329.36 480.697 330 L 480.697 330 L 485.353 331.5 L 486.018 333 L 493.334 337.5 Q 506.844 351.844 499.985 381.5 Q 478.033 435.497 435.471 474 Q 430.18 470.977 430.815 463.5 L 430.815 461.5 Q 416.554 384.721 372.287 330.5 Q 389.974 331.297 396.23 323.5 L 398.226 320 L 400.221 319.5 C 415.798 302.191 419.822 280.463 419.509 260 L 419.509 260 Z  M 588.442 265 L 590.438 268.5 L 588.442 271 L 583.787 270.5 L 585.782 266 L 588.442 265 Z  M 184.066 275 C 186.718 274.751 189.548 275.228 190.052 277.5 L 190.052 277.5 L 191.382 284.5 C 190.222 286.68 186.533 286.412 184.066 286 L 184.066 286 L 180.74 278.5 L 184.066 275 Z  M 830.536 276 C 832.677 275.678 835.678 275.596 836.522 277.5 L 836.522 277.5 L 837.852 283.5 L 831.867 284 C 827.964 282.377 829.255 278.51 830.536 276 L 830.536 276 Z  M 535.235 282 L 539.891 283.5 Q 536.565 285 541.221 286.5 Q 540.389 293.125 544.546 296 L 546.542 296.5 L 550.532 306.5 C 546.786 307.583 547.181 311.11 547.872 313.5 L 547.872 313.5 L 549.202 315.5 L 545.876 317 L 539.891 314.5 L 535.235 309 L 533.24 308.5 C 529.38 300.924 529.42 292.45 530.579 284.5 L 530.579 284.5 L 535.235 282 Z  M 772.008 282 C 774.908 282.872 774.552 285.645 774.003 287.5 L 774.003 287.5 L 770.678 289 L 768.683 285.5 L 772.008 282 Z  M 548.537 283 L 553.192 285.5 C 551.758 288.196 548.607 292.33 545.211 288.5 L 545.211 288.5 L 545.876 286 L 547.872 285.5 L 548.537 283 Z  M 577.801 285 L 581.126 286.5 C 587.106 293.838 586.662 303.324 585.117 311.5 L 585.117 311.5 L 583.122 312 C 580.612 309.17 574.678 310.242 571.15 311 L 571.15 311 L 565.829 312 L 553.192 303.5 L 551.862 301.5 L 559.843 298.5 L 561.839 291 C 568.109 290.896 574.599 289.375 577.801 285 L 577.801 285 Z  M 148.151 287 L 152.806 288.5 C 153.138 290.494 152.503 292.621 149.481 293 L 149.481 293 L 144.825 290.5 L 148.151 287 Z  M 250.575 290 L 251.24 292.5 C 238.235 305.012 237.351 322.367 239.268 337.5 L 239.268 337.5 L 244.589 348.5 L 241.264 347 L 236.608 348.5 L 235.278 355.5 L 237.273 360 L 239.268 360.5 C 238.216 364.061 233.357 364.47 229.292 364 L 229.292 364 L 221.976 359.5 L 217.985 354.5 L 222.641 349 L 224.636 348.5 C 235.328 338.232 235.723 323.872 233.948 311.5 L 233.948 311.5 L 229.957 303.5 C 233.869 304.099 239.478 304.497 241.929 301.5 L 241.929 301.5 L 242.594 300 L 244.589 299.5 L 250.575 290 Z  M 556.518 292 L 557.183 295.5 L 552.527 297 L 551.197 295 L 556.518 292 Z  M 616.376 295 L 623.692 298.5 L 623.027 303 L 616.376 305 C 613.174 303.704 611.903 301.1 611.721 298.5 L 611.721 298.5 L 616.376 295 Z  M 427.49 305 L 430.815 305.5 C 431.147 307.494 430.512 309.621 427.49 310 L 427.49 310 L 423.499 311 L 424.164 309.5 C 423.833 307.506 424.467 305.379 427.49 305 L 427.49 305 Z  M 194.707 312 L 199.363 313.5 L 200.693 319.5 L 197.368 321 L 194.042 319.5 L 194.707 312 Z  M 720.131 312 L 724.787 312.5 L 726.117 318.5 L 724.121 319 C 720.063 317.728 718.634 315.08 720.131 312 L 720.131 312 Z  M 559.178 313 L 565.164 316.5 Q 562.947 325.167 568.49 328 Q 578.133 326.75 581.126 330.5 Q 584.474 344.017 575.141 348 L 572.48 349 Q 566.938 345.667 555.853 346.5 Q 541.039 335.137 535.9 316.5 L 537.895 316 C 539.696 318.671 543.41 319.806 547.207 320 L 547.207 320 L 557.183 315.5 L 559.178 313 Z  M 572.48 315 L 575.806 315.5 L 577.136 320.5 L 568.49 322 L 567.825 318.5 L 569.82 316 L 572.48 315 Z  M 580.461 315 L 586.447 317.5 L 594.428 325.5 L 592.433 330 L 579.796 321.5 L 580.461 315 Z  M 270.528 317 C 287.215 314.837 292.243 331.153 295.213 340.63 C 302.881 365.099 299.329 394.123 277.179 414 L 277.179 414 L 273.853 415.5 C 269.614 421.672 263.498 427.037 255.896 431 L 255.896 431 L 228.627 448.5 L 218.651 461 L 216.655 461.5 L 210.669 471 C 200.226 455.943 196.273 438.765 195.449 421.942 C 194.342 399.37 197.096 375.561 215.99 357 L 215.99 357 L 222.641 364 C 224.78 367.395 230.342 367.486 234.613 367 L 234.613 367 L 240.599 364.5 L 243.924 358 Q 250.575 359 251.905 356 Q 254.851 360.286 265.207 359 L 271.193 355.5 L 270.528 354 Q 260.219 355.75 257.891 351.5 Q 261.882 345.5 260.551 335.5 L 256.561 327.5 L 258.556 325 L 260.551 324.5 L 266.537 318 L 270.528 317 Z  M 67.009 319 L 70.335 319.5 L 71.665 325.5 L 65.679 331 L 63.019 332 C 59.644 330.884 59.302 327.915 59.693 325.5 L 59.693 325.5 L 67.009 319 Z  M 255.896 339 L 259.221 340.5 L 255.896 348 C 252.288 346.644 253.113 342.867 253.901 340.5 L 253.901 340.5 L 255.896 339 Z  M 44.396 340 L 46.391 340.5 C 47.059 342.608 47.653 345.887 44.396 347 L 44.396 347 L 41.071 346.5 L 41.736 341 L 44.396 340 Z  M 464.735 349 L 469.391 349.5 L 462.075 354 L 461.41 351.5 L 464.735 349 Z  M 74.99 388 L 79.646 390.5 C 80.237 392.944 80.16 396.175 76.321 397 L 76.321 397 L 71.665 395.5 L 74.325 391.5 L 74.325 389.5 L 74.99 388 Z " fill-rule="evenodd" fill="rgba(251,251,251,0)"/></g></g></svg>