<?xml version="1.0" encoding="UTF-8" standalone="no"?>
<!-- Generator: Gravit.io -->
<svg xmlns="http://www.w3.org/2000/svg" xmlns:xlink="http://www.w3.org/1999/xlink" 
style="isolation:isolate" viewBox="0 0 750 500" width="750pt" height="500pt">
<defs>
<clipPath id="_clipPath_FLorMSy3V6qgX1SSyZuckrslAb8a0PhF">
<rect width="750" height="500" stroke-width="0" fill="rgb(0,0,0)"/></clipPath></defs>
<g clip-path="url(#_clipPath_FLorMSy3V6qgX1SSyZuckrslAb8a0PhF)">
<clipPath id="_clipPath_v29675xObHc8IGSsCMGoJjYQFmJWnhGO">
<rect x="0" y="0" width="750" height="500" transform="matrix(1,0,0,1,0,0)" fill="rgb(0,0,0)"/>
</clipPath><g clip-path="url(#_clipPath_v29675xObHc8IGSsCMGoJjYQFmJWnhGO)"><g><g><g>
<path d=" M 278.711 65.211 C 268.53 63.685 257.255 64.13 248.185 72.416 L 248.185 72.416 L 219.51 85.385 Q 206.609 87.623 199.623 99.074 Q 192.306 119.378 194.073 153.832 Q 196.478 177.752 188.523 185.533 L 191.298 197.061 L 187.598 199.943 L 177.423 256.141 L 180.198 259.023 L 178.81 278.477 C 178.315 263.067 176.353 247.341 171.41 233.806 L 171.41 233.806 L 156.148 225.881 L 151.06 157.434 Q 135.292 147.414 114.06 145.906 Q 110.476 149.689 103.885 148.788 L 103.422 135.099 Q 105.504 133.298 104.347 126.453 Q 92.149 118.077 73.36 119.969 L 68.735 121.41 L 56.247 123.571 C 52.888 122.828 48.773 122.672 46.072 126.453 L 46.072 126.453 L 43.76 186.254 C 44.488 197.757 44.354 210.261 40.985 220.837 L 40.985 220.837 L 31.272 228.763 C 32.149 233.68 33.34 241.97 29.885 245.334 L 29.885 245.334 L 14.622 256.141 Q 0.537 308.41 3.522 387.271 Q 2.975 400.372 5.835 408.165 L 17.397 417.532 Q 19.453 423.696 26.185 422.575 Q 33.948 412.334 46.535 409.606 L 91.86 438.426 C 96.536 446.207 103.882 447.597 110.36 447.072 L 110.36 447.072 L 180.66 403.842 L 233.385 439.867 L 247.723 450.674 C 250.203 454.613 254.142 454.827 257.436 454.277 L 257.436 454.277 L 323.111 409.606 L 338.373 421.854 C 339.858 425.428 342.838 425.83 345.311 425.457 L 345.311 425.457 L 361.036 409.606 Q 373.789 430.808 395.261 438.426 Q 398.085 430.577 405.436 429.78 L 414.686 435.544 L 428.561 418.252 C 429.945 423.469 433.653 424.442 436.886 424.016 L 436.886 424.016 L 441.511 421.134 L 447.986 424.016 L 461.861 415.37 L 480.824 431.941 Q 483.715 438.246 491.461 436.985 Q 498.798 428.961 511.812 429.78 Q 515.764 442.356 528.462 441.308 L 586.737 408.165 L 610.787 393.755 L 673.687 428.339 C 676.558 419.872 682.822 417.867 688.487 418.252 L 688.487 418.252 L 705.137 425.457 L 727.337 406.724 L 739.362 413.929 L 750 408.886 C 749.431 369.561 747.336 330.23 743.062 291.445 L 743.062 291.445 L 725.487 284.241 L 722.712 285.682 C 720.53 273.471 719.814 260.127 720.4 247.496 C 720.662 241.846 721.598 234.762 718.087 230.924 L 718.087 230.924 L 711.612 233.806 Q 709.061 223.371 709.762 207.868 Q 710.44 170.068 706.062 140.142 Q 680.22 127.804 645.937 128.614 Q 643.578 133.586 636.225 130.776 L 610.324 135.099 L 611.249 175.446 L 608.012 186.254 L 607.549 155.273 Q 608.937 141.583 604.774 136.54 Q 598.454 123.331 601.999 94.751 Q 605.699 90.428 602.924 76.019 Q 596.989 70.855 586.737 72.416 L 553.437 66.652 L 549.737 68.093 L 535.862 70.975 L 486.374 81.782 C 482.852 91.162 483.414 103.208 484.524 113.484 L 484.524 113.484 L 480.361 197.782 L 471.111 196.341 L 466.486 264.067 L 459.086 262.626 L 440.124 271.992 L 438.736 301.532 L 426.711 295.768 L 425.324 296.489 C 425.626 278.429 425.056 260.257 423.011 242.452 L 423.011 242.452 L 419.311 243.893 Q 413.53 237.048 417.924 214.353 Q 415.611 209.309 416.999 198.502 L 416.074 166.8 Q 418.386 153.832 414.686 150.229 Q 398.949 138.72 374.911 140.142 Q 362.098 138.914 355.023 146.627 L 355.948 186.974 L 354.098 188.415 L 348.086 157.434 L 345.311 145.906 L 337.448 140.863 L 331.436 92.59 L 328.661 75.298 C 312.891 65.656 295.475 63.912 278.711 65.211 L 278.711 65.211 Z " fill="rgb(50,50,50)"/>
</g></g></g><rect x="-13.5" y="384" width="774" height="114" transform="matrix(1,0,0,1,0,0)" fill="rgb(50,50,0)" stroke-width="0"/></g></g></svg>