<svg xmlns="http://www.w3.org/2000/svg" xmlns:xlink="http://www.w3.org/1999/xlink" style="isolation:isolate" viewBox="0 0 750 500" width="750pt" height="500pt" ><defs><clipPath id="_clipPath_zlOIcaJ31GwwIYxpPM7yhZQMUxpb2JFn"><rect width="750" height="500"/></clipPath></defs><g clip-path="url(#_clipPath_zlOIcaJ31GwwIYxpPM7yhZQMUxpb2JFn)"><clipPath id="_clipPath_1P0tRYxyo8ONCeS5jzP2bma2MTgOxTnR"><rect x="0" y="0" width="750" height="500" transform="matrix(1,0,0,1,0,0)" fill="#405060"/></clipPath><g  clip-path="url(#_clipPath_1P0tRYxyo8ONCeS5jzP2bma2MTgOxTnR)"><g><g><g><path id="ciudade3" d=" M 471.289 65.211 C 481.47 63.685 492.745 64.13 501.815 72.416 L 501.815 72.416 L 530.49 85.385 Q 543.391 87.623 550.377 99.074 Q 557.694 119.378 555.927 153.832 Q 553.522 177.752 561.477 185.533 L 558.702 197.061 L 562.402 199.943 L 572.577 256.141 L 569.802 259.023 L 571.19 278.477 C 571.685 263.067 573.647 247.341 578.59 233.806 L 578.59 233.806 L 593.852 225.881 L 598.94 157.434 Q 614.708 147.414 635.94 145.906 Q 639.524 149.689 646.115 148.788 L 646.578 135.099 Q 644.496 133.298 645.653 126.453 Q 657.851 118.077 676.64 119.969 L 681.265 121.41 L 693.753 123.571 C 697.112 122.828 701.227 122.672 703.928 126.453 L 703.928 126.453 L 706.24 186.254 C 705.512 197.757 705.646 210.261 709.015 220.837 L 709.015 220.837 L 718.728 228.763 C 717.851 233.68 716.66 241.97 720.115 245.334 L 720.115 245.334 L 735.378 256.141 Q 749.463 308.41 746.478 387.271 Q 747.025 400.372 744.165 408.165 L 732.603 417.532 Q 730.547 423.696 723.815 422.575 Q 716.052 412.334 703.465 409.606 L 658.14 438.426 C 653.464 446.207 646.118 447.597 639.64 447.072 L 639.64 447.072 L 569.34 403.842 L 516.615 439.867 L 502.277 450.674 C 499.797 454.613 495.858 454.827 492.564 454.277 L 492.564 454.277 L 426.889 409.606 L 411.627 421.854 C 410.142 425.428 407.162 425.83 404.689 425.457 L 404.689 425.457 L 388.964 409.606 Q 376.211 430.808 354.739 438.426 Q 351.915 430.577 344.564 429.78 L 335.314 435.544 L 321.439 418.252 C 320.055 423.469 316.347 424.442 313.114 424.016 L 313.114 424.016 L 308.489 421.134 L 302.014 424.016 L 288.139 415.37 L 269.176 431.941 Q 266.285 438.246 258.539 436.985 Q 251.202 428.961 238.188 429.78 Q 234.236 442.356 221.538 441.308 L 163.263 408.165 L 139.213 393.755 L 76.313 428.339 C 73.442 419.872 67.178 417.867 61.513 418.252 L 61.513 418.252 L 44.863 425.457 L 22.663 406.724 L 10.638 413.929 L 0 408.886 C 0.569 369.561 2.664 330.23 6.938 291.445 L 6.938 291.445 L 24.513 284.241 L 27.288 285.682 C 29.47 273.471 30.186 260.127 29.6 247.496 C 29.338 241.846 28.402 234.762 31.913 230.924 L 31.913 230.924 L 38.388 233.806 Q 40.939 223.371 40.238 207.868 Q 39.56 170.068 43.938 140.142 Q 69.78 127.804 104.063 128.614 Q 106.422 133.586 113.775 130.776 L 139.676 135.099 L 138.751 175.446 L 141.988 186.254 L 142.451 155.273 Q 141.063 141.583 145.226 136.54 Q 151.546 123.331 148.001 94.751 Q 144.301 90.428 147.076 76.019 Q 153.011 70.855 163.263 72.416 L 196.563 66.652 L 200.263 68.093 L 214.138 70.975 L 263.626 81.782 C 267.148 91.162 266.586 103.208 265.476 113.484 L 265.476 113.484 L 269.639 197.782 L 278.889 196.341 L 283.514 264.067 L 290.914 262.626 L 309.876 271.992 L 311.264 301.532 L 323.289 295.768 L 324.676 296.489 C 324.374 278.429 324.944 260.257 326.989 242.452 L 326.989 242.452 L 330.689 243.893 Q 336.47 237.048 332.076 214.353 Q 334.389 209.309 333.001 198.502 L 333.926 166.8 Q 331.614 153.832 335.314 150.229 Q 351.051 138.72 375.089 140.142 Q 387.902 138.914 394.977 146.627 L 394.052 186.974 L 395.902 188.415 L 401.914 157.434 L 404.689 145.906 L 412.552 140.863 L 418.564 92.59 L 421.339 75.298 C 437.109 65.656 454.525 63.912 471.289 65.211 L 471.289 65.211 Z " fill="#405060"/></g></g></g><rect x="-10.5" y="384" width="774" height="114" transform="matrix(1,0,0,1,0,0)" fill="#405060"/></g></g></svg>