<?xml version="1.0" encoding="UTF-8" standalone="no"?><!-- Generator: Gravit.io --><svg xmlns="http://www.w3.org/2000/svg" xmlns:xlink="http://www.w3.org/1999/xlink" style="isolation:isolate" viewBox="0 0 750 500" width="750pt" height="500pt"><defs><clipPath id="_clipPath_z0FM5cJAKHofDlJ41KeqW8893fzMQtY1"><rect width="750" height="500"/></clipPath></defs><g clip-path="url(#_clipPath_z0FM5cJAKHofDlJ41KeqW8893fzMQtY1)"><g style="isolation:isolate"/><g style="isolation:isolate"><g><g><path d=" M 584.617 12.906 L 586.01 13.493 Q 584.071 41.754 587.866 62.77 Q 583.921 79.489 589.259 84.475 Q 600.383 82.151 603.65 89.755 Q 623.131 103.855 620.362 146.072 L 597.151 170.71 L 597.615 175.99 L 612.934 176.577 L 607.828 188.896 L 598.079 189.483 C 601.795 188.331 607.555 187.079 610.149 191.829 L 610.149 191.829 L 605.971 202.975 L 598.079 203.562 L 598.544 206.495 L 609.221 207.082 L 605.971 219.401 L 597.615 218.228 L 597.151 219.988 C 600.522 219.382 604.652 219.255 607.364 222.334 L 607.364 222.334 L 603.186 233.48 L 597.151 234.067 L 597.615 261.639 L 618.505 262.225 C 619.338 266.555 620.123 273.36 616.184 275.718 L 616.184 275.718 L 604.578 288.037 L 604.578 305.636 C 604.029 308.414 603.453 312.845 605.971 314.436 L 605.971 314.436 L 632.896 326.168 Q 635.294 303.387 634.289 276.304 Q 631.658 259.488 636.145 251.666 Q 639.859 244.04 638.002 229.374 Q 634.056 225.561 637.074 212.948 Q 652.224 206.868 672.819 207.668 L 701.136 214.121 C 705.158 213.284 710.478 213.032 713.206 217.641 L 713.206 217.641 L 715.527 271.025 C 714.192 277.265 712.446 287.447 717.384 292.144 L 717.384 292.144 L 722.026 290.97 C 723.922 294.065 723.827 298.45 723.419 302.116 L 723.419 302.116 L 725.74 335.554 L 730.382 334.381 L 741.988 340.834 C 745.689 372.282 747.344 404.089 747.558 435.869 L 747.558 435.869 L 736.881 439.975 L 728.525 434.109 L 716.456 444.668 C 714.963 448.651 711.08 448.759 708.1 448.188 L 708.1 448.188 L 696.958 443.495 C 695 449.729 689.673 451.004 684.889 450.535 L 684.889 450.535 L 646.822 429.416 C 629.476 438.084 610.591 440.996 592.044 441.149 L 592.044 441.149 L 556.764 420.03 Q 550.961 409.764 535.41 411.817 Q 516.082 416.724 492.701 416.51 L 459.742 406.537 L 459.277 402.431 L 435.138 412.99 Q 428.765 418.43 416.569 416.51 Q 414.712 412.99 408.213 415.337 L 386.859 414.163 C 383.443 415.381 377.65 417.084 375.254 412.403 L 375.254 412.403 L 382.681 381.899 C 378.433 378.084 372.83 380.293 368.11 380.66 C 360.674 381.238 353.069 381.231 346.008 377.792 L 346.008 377.792 L 333.009 414.163 C 316.428 405.208 297.951 403.017 280.088 403.604 L 280.088 403.604 L 275.446 404.777 L 258.734 407.124 L 257.806 105.594 L 210.919 73.329 Q 206.741 55.73 212.312 50.45 Q 240.508 32.698 285.659 36.371 Q 316.549 42.506 337.187 61.597 Q 339.973 73.916 335.795 77.436 L 289.837 106.181 L 290.301 299.183 L 291.23 293.317 L 322.332 276.304 L 324.189 258.705 L 330.224 212.361 Q 341.842 214.137 346.472 207.082 Q 344.383 193.882 350.65 191.243 Q 357.845 187.429 354.828 170.71 L 355.292 126.713 C 358.659 126.974 363.064 125.859 363.15 120.877 C 363.201 117.901 363.4 114.963 364.26 112.16 C 366.681 104.26 373.346 101.747 379.431 103.248 L 379.431 103.248 L 403.571 103.248 C 408.799 110.192 412.441 118.783 414.712 127.886 L 414.712 127.886 L 421.676 129.646 L 421.676 168.364 C 420.931 173.865 420.539 180.455 423.068 185.376 L 423.068 185.376 L 429.103 185.963 L 434.674 211.775 L 430.032 212.948 L 430.496 221.748 C 433.185 220.841 437.603 219.719 439.316 223.507 L 439.316 223.507 L 452.778 294.49 Q 456.956 293.317 457.885 296.25 Q 457.471 330.798 463.92 356.673 Q 466.607 348.923 466.241 337.314 Q 471.305 313.209 470.883 282.171 Q 470.017 261.718 475.061 248.733 L 481.096 245.8 L 481.56 242.866 C 501.257 239.656 521.126 238.259 540.98 238.173 L 540.98 238.173 L 552.122 326.168 L 554.907 348.46 C 554.445 351.597 554.235 355.958 556.764 357.847 L 556.764 357.847 L 560.942 329.101 C 560.518 324.709 560.766 319.229 564.191 316.782 L 564.191 316.782 L 569.298 315.022 L 569.298 293.903 C 569.918 289.722 569.878 284.21 566.048 282.757 L 566.048 282.757 L 555.371 272.785 L 555.835 261.639 L 571.619 261.639 C 573.817 262.333 577.323 263.06 578.582 259.879 L 578.582 259.879 L 578.118 233.48 C 575.92 234.175 572.413 234.902 571.155 231.72 L 571.155 231.72 L 568.369 222.334 L 580.439 221.161 L 579.975 218.228 L 570.226 217.641 L 568.369 208.255 L 579.511 207.082 L 579.046 202.975 L 569.298 202.389 L 567.441 190.656 L 581.367 189.483 C 577.863 185.736 572.574 186.22 568.369 187.136 L 568.369 187.136 L 565.584 176.577 L 579.511 175.403 C 579.854 172.078 579.275 168.449 576.261 167.777 L 576.261 167.777 L 556.299 146.072 Q 553.979 105.008 573.476 91.515 Q 576.493 87.115 582.296 86.235 Q 581.66 47.301 584.617 12.906 Z  M 66.547 58.663 C 74.266 58.326 82.861 59.936 88.365 67.463 L 88.365 67.463 L 87.437 96.795 L 88.829 97.381 C 91.752 92.994 96.659 92.326 100.899 92.688 L 100.899 92.688 L 127.36 107.354 L 128.752 131.406 L 131.538 192.416 Q 144.728 180.339 169.14 182.443 Q 167.613 154.115 173.318 134.926 L 174.71 135.512 L 177.96 173.644 Q 176.412 182.639 179.817 185.376 Q 208.128 189.49 223.918 209.428 L 224.846 225.854 L 183.066 243.453 L 183.53 245.213 L 208.134 245.8 L 202.099 254.599 L 179.352 255.186 L 205.349 256.359 L 201.171 265.158 L 183.066 265.745 L 197.457 266.332 C 199.655 265.637 203.161 264.91 204.42 268.092 L 204.42 268.092 L 199.314 275.718 L 182.138 276.304 L 202.564 277.478 L 197.457 285.104 L 185.852 285.691 L 186.316 292.144 L 195.136 297.423 Q 201.985 308.713 201.635 329.101 Q 196.761 334.088 200.707 350.22 L 201.635 350.22 L 202.099 346.114 L 207.206 345.527 L 211.384 305.05 L 222.061 304.463 L 222.525 261.639 L 227.631 259.879 L 228.096 256.946 Q 242.651 257.154 252.235 251.079 Q 257.651 326.364 255.485 411.23 Q 228.288 416.166 195.6 414.163 L 194.672 409.47 Q 177.162 415.502 153.356 413.577 Q 155.213 422.376 151.963 424.723 L 110.184 464.614 L 97.185 476.347 C 96.228 480.58 92.818 481.426 89.758 481.04 L 89.758 481.04 L 37.765 431.762 L 26.16 444.082 C 25.83 448.246 23.137 449.679 20.125 449.361 L 20.125 449.361 L 8.055 432.936 C 1.666 428.08 2.581 416.716 3.877 408.884 L 3.877 408.884 L 2.949 352.567 Q 3.158 314.7 7.591 282.171 Q 7.898 262.026 11.305 245.8 Q 10.937 233.016 17.34 228.787 L 26.16 219.988 Q 23.586 200.309 31.266 193.589 Q 37.997 191.536 36.373 178.923 Q 34.887 164.727 37.301 155.458 Q 35.817 107.239 39.622 65.703 L 66.547 58.663 Z " fill-rule="evenodd" fill="#304050"/></g></g></g></g></svg>