<?xml version="1.0" encoding="UTF-8" standalone="no"?><!-- Generator: Gravit.io --><svg xmlns="http://www.w3.org/2000/svg" xmlns:xlink="http://www.w3.org/1999/xlink" style="isolation:isolate" viewBox="0 0 750 500" width="750pt" height="500pt"><defs><clipPath id="_clipPath_cREsAlQMmolDpWLgqeitFpzAWAFeIlYs"><rect width="750" height="500"/></clipPath></defs><g clip-path="url(#_clipPath_cREsAlQMmolDpWLgqeitFpzAWAFeIlYs)"><g style="isolation:isolate"><g><path d=" M 0.503 0 L 810 0.59 L 809.499 715.5 L 0.002 714.91 L 0.503 332.955 L 11.53 341.22 L 17.545 344.762 L 38.597 330.594 L 89.723 358.931 L 108.77 368.376 L 156.889 341.22 C 161.841 332.941 170.933 331.297 178.943 331.775 L 178.943 331.775 L 185.96 334.136 L 196.988 328.233 L 220.045 343.582 C 224.797 339.176 231.262 338.474 237.087 338.859 L 237.087 338.859 L 278.188 360.111 Q 292.671 370.209 319.289 366.015 Q 357.055 360.906 389.463 349.485 L 437.581 373.099 C 442.374 377.876 448.48 380.33 454.623 381.364 L 454.623 381.364 L 519.784 349.485 L 540.836 361.292 L 549.858 354.208 L 550.861 358.931 L 613.014 380.183 C 619.389 387.256 628.668 388.768 637.073 388.448 L 637.073 388.448 L 653.113 380.183 L 675.167 386.087 L 702.234 370.738 Q 707.512 377.509 719.276 376.641 Q 728.742 377.754 732.308 371.918 Q 733.34 381.919 743.336 381.364 Q 746.343 376.051 754.363 376.641 Q 756.618 382.84 763.385 383.725 L 805.99 353.618 L 804.988 235.548 L 804.988 200.127 Q 806.491 189.501 803.484 184.188 Q 797.359 170.149 801.479 144.045 Q 789.7 138.436 772.407 139.322 L 740.829 148.177 C 738.302 152.555 738.97 158.666 739.827 163.526 L 739.827 163.526 L 737.321 224.332 L 733.311 223.151 C 730.637 226.3 731.137 231.602 731.807 235.548 L 731.807 235.548 L 730.303 266.837 C 725.479 266.458 719.877 267.271 716.77 272.15 L 716.77 272.15 L 716.269 275.101 L 701.232 270.379 L 697.222 271.559 C 693.948 269.105 694.518 263.541 695.217 259.752 L 695.217 259.752 L 692.209 227.874 L 683.187 229.054 C 680.732 227.74 681.18 223.869 681.683 221.38 L 681.683 221.38 L 680.681 207.212 C 681.128 188.817 680.105 170.176 676.17 152.309 L 676.17 152.309 L 603.992 142.864 C 601.413 146.889 595.989 145.686 592.463 144.635 L 592.463 144.635 L 557.377 148.177 L 557.377 174.152 Q 559.048 184.385 554.871 187.73 Q 551.29 191.188 552.364 200.127 L 550.861 229.054 L 548.856 223.151 L 533.317 214.296 C 534.027 209.835 534.402 203.685 530.811 200.718 L 530.811 200.718 L 521.288 194.224 C 516.637 185.173 519.934 173.639 519.929 163.798 C 519.92 148.059 519.248 132.387 516.777 116.889 L 516.777 116.889 L 479.685 112.166 L 458.132 117.479 L 457.631 136.96 L 442.594 133.418 C 430.931 134.268 419.038 137.284 409.011 144.635 L 409.011 144.635 L 405.502 186.55 C 406.305 191.276 406.74 198.026 402.495 200.718 L 402.495 200.718 L 387.959 207.212 Q 382.807 221.216 381.443 239.681 Q 381.143 220.552 371.418 212.525 Q 343.216 206.187 320.793 193.043 Q 322.018 173.3 319.791 157.623 Q 321.194 148.885 317.786 145.816 Q 314.444 141.486 315.781 131.647 L 315.28 105.082 L 271.171 100.359 L 260.143 102.72 L 234.58 106.853 C 228.909 106.078 222.308 106.135 217.538 110.395 L 217.538 110.395 L 214.03 167.658 Q 216.983 181.173 212.025 185.369 Q 207.263 186.845 206.01 184.188 Q 200.289 202.835 200.998 229.054 L 195.985 227.874 L 185.96 231.416 C 185.708 208.218 183.158 184.651 175.936 162.936 L 175.936 162.936 L 159.395 155.261 C 159.794 133.296 158.476 111.084 153.881 89.733 L 153.881 89.733 L 129.321 82.058 C 124.683 78.903 118.99 78.608 113.782 79.106 L 113.782 79.106 L 102.755 82.649 L 102.254 74.974 C 106.099 71.578 104.372 64.006 103.256 59.625 L 103.256 59.625 L 77.693 53.131 L 69.172 54.902 L 40.101 59.625 L 37.594 122.792 C 38.817 131.619 39.389 141.817 35.59 149.948 L 35.59 149.948 L 24.061 158.803 C 25.191 163.463 26.811 171.403 22.557 174.743 L 22.557 174.743 L 6.017 183.598 L 0.503 210.163 L 0.503 0 Z " fill="rgb(253,253,253)"/><path d=" M 71.922 53.131 L 95.603 60.384 L 94.674 85.439 L 96.067 86.099 C 100.725 82.031 106.545 81.579 111.854 82.142 L 111.854 82.142 L 142.964 94.67 L 148.072 167.858 L 164.324 177.748 C 169.521 201.846 171.725 227.117 172.217 252.254 L 172.217 252.254 L 183.361 248.298 L 186.147 249.617 Q 185.491 220.333 190.79 199.506 Q 191.951 202.473 196.362 200.825 Q 200.956 196.139 198.22 181.044 Q 197.374 144.898 201.934 116.428 Q 226.057 105.187 258.583 105.879 Q 260.672 110.165 267.869 107.198 Q 269.727 111.154 276.227 108.516 L 280.87 109.835 L 292.479 111.813 L 292.479 140.824 C 291.835 145.45 291.639 150.208 293.576 154.267 C 296.031 159.414 296.897 163.273 296.193 169.836 L 296.193 169.836 L 297.122 197.528 C 296.318 201.713 295.289 208.626 298.515 211.374 L 298.515 211.374 L 327.768 223.902 Q 342.162 225.88 349.127 238.408 Q 353.004 247.408 353.306 261.485 Q 354.113 238.235 360.735 223.243 Q 370.636 222.797 375.129 214.671 Q 373.962 178.728 380.237 153.352 L 411.812 142.802 L 423.884 146.758 L 424.813 124.341 L 448.958 119.066 C 450.71 122.797 454.853 121.384 457.316 120.385 L 457.316 120.385 L 465.21 122.363 L 479.139 125 C 480.65 142.087 481.1 159.248 481.094 176.456 C 481.089 187.728 478.041 201.484 483.318 211.374 L 483.318 211.374 L 493.069 219.946 C 492.396 224.919 492.014 231.85 495.391 235.111 L 495.391 235.111 L 508.857 243.682 L 510.25 249.617 L 511.643 217.309 Q 510.714 208.078 513.5 204.122 Q 517.878 200.448 516.286 188.297 L 516.75 158.627 Q 542.753 159.286 564.112 153.352 Q 568.342 160.531 580.828 155.989 Q 583.917 161.492 592.9 158.627 Q 612.248 158.186 626.796 164.561 L 630.511 225.221 L 631.44 241.045 C 630.974 243.825 630.559 248.149 632.833 249.617 L 632.833 249.617 L 641.191 248.298 L 643.977 283.903 C 643.329 288.134 642.801 294.349 645.834 297.09 L 645.834 297.09 L 650.477 295.771 L 663.478 301.046 L 664.407 297.09 C 667.88 292.928 672.505 291.434 676.944 291.155 L 676.944 291.155 L 677.873 256.869 C 677.252 252.462 676.789 246.54 679.266 243.023 L 679.266 243.023 L 682.98 244.342 L 685.302 185.66 Q 682.168 166.704 686.695 158.627 Q 701.248 148.303 723.841 149.396 Q 736.055 148.536 742.879 155.33 Q 738.7 184.341 744.272 199.506 Q 747.058 205.44 745.665 217.309 L 745.665 256.869 L 746.594 388.739 L 718.269 413.135 L 705.268 422.365 Q 704.054 413.54 695.982 414.453 Q 692.693 419.014 686.695 419.728 L 678.337 409.178 C 674.547 416.333 667.131 415.795 661.621 414.453 L 661.621 414.453 L 650.477 407.86 C 642.05 416.002 632.479 421.507 622.617 425.003 L 622.617 425.003 L 603.116 418.409 C 599.558 426.421 592.576 428.084 586.4 427.64 L 586.4 427.64 L 509.785 394.013 L 509.321 389.398 L 499.106 397.31 L 480.532 384.123 C 461.229 399.512 440.518 411.152 419.241 419.728 L 419.241 419.728 L 360.735 384.123 C 332.151 399.502 301.01 403.534 270.655 402.585 L 270.655 402.585 L 231.651 380.167 C 227.758 372.964 220.896 371.733 214.936 372.255 L 214.936 372.255 L 202.863 377.53 L 181.504 360.387 L 170.36 366.98 C 167.82 364 164.187 363.872 161.073 364.343 L 161.073 364.343 L 98.853 405.222 L 35.704 363.024 L 14.345 378.849 L -0.049 365.002 L -0.049 263.463 C -1.45 241.706 -1.018 218.136 5.987 198.187 L 5.987 198.187 L 22.239 186.979 C 21.191 181.775 19.691 172.906 23.632 169.176 L 23.632 169.176 L 33.382 160.605 C 36.026 151.3 35.735 140.679 34.775 130.934 L 34.775 130.934 L 37.561 59.725 L 64.028 55.109 L 71.922 53.131 Z " fill="rgb(50,0,0)"/></g></g></g></svg>