<svg onclick="alert('Montain')" width="800.0000000000001" height="600" xmlns="http://www.w3.org/2000/svg">
 <!-- Created with Method Draw - http://github.com/duopixel/Method-Draw/ -->
 <g>
  <title>background</title>
  <g display="none" overflow="visible" y="0" x="0" height="100%" width="100%" id="canvasGrid">
   <rect fill="url(#gridpattern)" stroke-width="0" y="0" x="0" height="100%" width="100%"/>
  </g>
 </g>
 <g>
  <title>Layer 1</title>
  <path  id="mont1" d="m-0.66668,-2.73335c2.66667,29.33334 21.33334,69.33334 40,64.00001c18.66667,-5.33333 9.33333,-25.33334 8.66668,-26.59999c0.66665,1.26665 28.66666,21.26665 36.66666,41.26665c8,20 0,49.33334 21.33334,74.66668c21.33334,25.33334 20,8 52.00001,21.33334c32,13.33333 70.66668,73.33334 85.33334,102.66668c14.66667,29.33334 77.33334,88.00001 118.66668,108.00001c41.33334,20 93.33334,21.33334 142.66668,70.66668c49.33334,49.33334 185.33336,60.00001 220.00003,86.66668c34.66667,26.66667 77.33334,61.33334 76.66664,60.06666c0.6667,1.26669 -800.66673,2.60002 -801.33338,1.33333c0.66665,1.26669 -2.00002,-498.73337 -0.66668,-604.06672z" stroke-width="1.5" fill="#708090"/>
 </g>
</svg>