<svg width="800.0000000000001" height="600" xmlns="http://www.w3.org/2000/svg">
 <!-- Created with Method Draw - http://github.com/duopixel/Method-Draw/ -->
 <g>
  <title>background</title>
  <g display="none" overflow="visible" y="0" x="0" height="100%" width="100%" id="canvasGrid">
   <rect fill="url(#gridpattern)" stroke-width="0" y="0" x="0" height="100%" width="100%"/>
  </g>
 </g>
 <g>
  <title>Layer 1</title>
  <path id="mont2" d="m799.91198,2.60001c-2.65524,29.07457 -21.24189,68.72171 -39.82855,63.43542c-18.58666,-5.28629 -9.29333,-25.10986 -8.62953,-26.36533c-0.6638,1.25548 -28.54378,21.07905 -36.50949,40.90262c-7.96571,19.82357 0,48.89814 -21.24189,74.008c-21.24189,25.10986 -19.91427,7.92943 -51.77711,21.14514c-31.86284,13.21571 -70.36377,72.68642 -84.96757,101.76099c-14.6038,29.07457 -77.00186,87.22371 -118.15803,107.04728c-41.15617,19.82357 -92.93328,21.14514 -142.05516,70.04328c-49.12188,48.89814 -184.53894,59.47071 -219.05702,85.90214c-34.51808,26.43143 -77.00186,60.79228 -76.33802,59.53677c-0.66384,1.25551 797.23475,2.57708 797.89854,1.32157c-0.66379,1.25551 1.99144,-494.33374 0.66383,-598.73788z" fill="#708090"/>
 </g>
</svg>